<?xml version="1.0" standalone="no"?>
<!DOCTYPE svg PUBLIC "-//W3C//DTD SVG 20010904//EN"
 "http://www.w3.org/TR/2001/REC-SVG-20010904/DTD/svg10.dtd">
<svg version="1.0" xmlns="http://www.w3.org/2000/svg"
 width="550.000000pt" height="536.000000pt" viewBox="0 0 550.000000 536.000000"
 preserveAspectRatio="xMidYMid meet">

<g transform="translate(0.000000,536.000000) scale(0.100000,-0.100000)"
fill="#000000" stroke="none">
<path d="M5270 5315 c-933 -188 -1764 -577 -2335 -1092 -451 -408 -763 -930
-850 -1424 -25 -141 -27 -134 75 -228 50 -46 123 -120 162 -165 40 -44 74 -82
77 -83 3 -2 26 31 49 72 115 198 292 424 482 616 197 199 386 348 615 486 95
58 297 163 311 163 4 0 -19 -19 -52 -42 -238 -168 -489 -429 -673 -698 -179
-262 -335 -574 -441 -884 l-37 -109 38 -81 c50 -107 94 -240 115 -348 l17 -88
52 -19 c184 -69 458 -68 668 3 459 155 836 589 996 1148 41 143 58 238 86 498
109 981 352 1712 723 2171 34 42 78 91 97 108 33 28 34 31 13 30 -13 0 -97
-15 -188 -34z"/>
<path d="M63 3305 c87 -66 200 -238 280 -425 127 -298 216 -661 287 -1165 36
-250 52 -332 92 -445 158 -447 541 -774 1015 -866 99 -19 258 -23 463 -10 131
8 136 7 178 -15 53 -29 94 -92 162 -250 l49 -113 16 37 c25 61 19 133 -24 258
-127 376 -332 738 -622 1099 -176 218 -426 477 -608 628 -34 29 -56 52 -49 52
26 0 283 -135 383 -201 224 -147 463 -371 621 -582 89 -119 220 -332 262 -427
15 -33 30 -60 33 -60 11 0 54 117 75 200 26 103 26 330 0 450 -92 428 -385
850 -812 1170 -453 342 -1129 601 -1807 694 l-39 5 45 -34z"/>
</g>
</svg>
