<?xml version="1.0" encoding="UTF-8" standalone="no"?>
<!-- Created with Inkscape (http://www.inkscape.org/) -->

<svg
   width="210mm"
   height="297mm"
   viewBox="0 0 210 297"
   version="1.1"
   id="svg1"
   xml:space="preserve"
   xmlns="http://www.w3.org/2000/svg"
   xmlns:svg="http://www.w3.org/2000/svg"><defs
     id="defs1" /><g
     id="layer1"><g
       id="g62"
       transform="translate(3.8035581,14.1275)"><path
         style="fill:#f5f8f3"
         d="M -68.946846,166.24734 V 69.858261 H 107.62276 284.19238 v 96.389079 96.38907 H 107.62276 -68.946846 Z m 128.626798,62.50764 c 0.531627,-0.10082 0.71796,-0.26034 0.680858,-0.58287 l -0.02732,-0.23749 -0.751406,0.0312 c -0.73957,0.0307 -0.755527,0.027 -1.013033,-0.23046 l -0.261628,-0.26163 v -1.90338 -1.90337 h 0.905264 0.905264 v -0.38797 -0.38797 h -0.768889 c -1.058055,0 -1.041639,0.011 -1.041639,-0.69895 v -0.59429 h -0.427301 -0.427301 l -0.02533,0.62507 -0.02533,0.62506 -0.49574,0.0259 -0.49574,0.0258 v 0.39568 0.39568 l 0.409525,-0.0448 c 0.660497,-0.0722 0.625063,-0.18641 0.625063,2.0137 0,2.88172 0.404656,3.44218 2.234684,3.09512 z m 22.272503,-0.0471 c 0.279934,-0.0349 0.531798,-0.14412 0.794277,-0.34448 0.339729,-0.25932 0.582833,-0.28176 0.433425,-0.04 -0.145146,0.23485 0.05352,0.43031 0.437364,0.43031 h 0.382161 v -2.01042 c 0,-2.673 -0.123567,-3.08104 -1.108336,-3.65995 -1.136785,-0.66827 -4.04572,0.10748 -3.464391,0.92388 0.206079,0.28941 0.35814,0.3297 0.51789,0.13721 0.636522,-0.76696 2.60595,-0.60044 3.020242,0.25537 0.403917,0.83439 0.24667,0.96895 -1.137289,0.97322 -2.011765,0.006 -2.810685,0.5547 -2.726799,1.87209 0.06204,0.97439 1.044547,1.66867 2.182891,1.54254 0.142255,-0.0158 0.44311,-0.0516 0.668565,-0.0797 z m -1.312197,-0.7513 c -0.566025,-0.2049 -0.829633,-0.84342 -0.561928,-1.3611 0.254776,-0.49268 0.886691,-0.65137 2.215219,-0.55628 l 0.866018,0.062 -0.04876,0.47249 c -0.113835,1.10296 -1.343109,1.79106 -2.470544,1.38291 z m 11.015629,0.64498 c 0.244841,-0.1122 0.281107,-0.16811 0.258647,-0.39871 l -0.02612,-0.26821 -0.659652,0.0301 c -1.241088,0.0566 -1.240597,0.0575 -1.306265,-2.42255 l -0.04965,-1.87519 h 0.856908 0.856907 v -0.38797 -0.38797 h -0.725781 c -1.010838,0 -0.998531,0.009 -0.998531,-0.70368 v -0.599 l -0.409524,0.0263 -0.409525,0.0263 -0.01248,0.51729 c -0.0069,0.28452 -0.01657,0.56377 -0.02155,0.62056 -0.0055,0.0623 -0.188829,0.11362 -0.461701,0.12933 l -0.452632,0.0261 v 0.34486 0.34486 l 0.445733,0.0258 0.445734,0.0258 0.02845,2.00025 c 0.03099,2.17819 0.09377,2.48797 0.567137,2.79813 0.534943,0.35051 1.462971,0.40764 2.073907,0.12768 z m 24.922163,0.14792 c 2.85215,-0.4628 3.31178,-4.47697 0.6514,-5.68892 -2.00319,-0.91256 -4.40766,0.88707 -4.13209,3.09266 0.22321,1.78646 1.6969,2.8857 3.48069,2.59626 z m -0.96205,-0.76769 c -1.47899,-0.29064 -2.14044,-2.43188 -1.11964,-3.62446 0.89686,-1.04777 2.50364,-0.97697 3.21301,0.14158 1.10541,1.74306 -0.16774,3.86129 -2.09337,3.48288 z m 17.76368,0.62305 c 0.53563,-0.24744 0.3061,-0.91558 -0.24815,-0.72237 -1.27592,0.44479 -1.50518,0.11473 -1.56064,-2.24682 -0.0515,-2.19201 -0.14723,-1.96868 0.84396,-1.96868 h 0.81396 v -0.38797 -0.38797 h -0.81905 -0.81905 v -0.64662 -0.64662 h -0.47041 -0.47041 l -0.0253,0.62507 -0.0253,0.62506 -0.47419,0.0431 -0.47418,0.0431 v 0.34486 0.34486 l 0.48884,0.0256 0.48884,0.0257 0.0285,2.00042 c 0.0307,2.15391 0.0543,2.27529 0.52833,2.71807 0.46092,0.4305 1.50259,0.53075 2.19434,0.21119 z m 18.06714,0.14679 c 0.65872,-0.0952 0.88923,-0.19636 1.48597,-0.65186 l 0.41465,-0.31651 0.46627,0.48522 c 0.5444,0.56651 0.52028,0.55995 0.83845,0.22785 l 0.24657,-0.25736 -0.52989,-0.55183 -0.52989,-0.55182 0.30027,-0.69289 c 0.50318,-1.16113 0.49536,-1.2901 -0.0809,-1.33451 -0.21754,-0.0168 -0.25616,0.0276 -0.43473,0.4989 -0.29485,0.77825 -0.31635,0.81905 -0.43181,0.81905 -0.53311,0 -1.88231,-1.98437 -1.47973,-2.17635 1.57631,-0.75169 1.7272,-2.79516 0.2393,-3.24094 -2.20614,-0.66098 -3.66041,1.35267 -2.21634,3.06885 0.28586,0.33972 0.27909,0.38048 -0.0968,0.58289 -2.70444,1.45644 -1.33852,4.54634 1.80861,4.09131 z m -1.2471,-0.7717 c -1.37233,-0.41458 -1.45626,-1.70972 -0.17405,-2.68559 0.41616,-0.31673 0.47248,-0.3371 0.60351,-0.21817 0.0795,0.0721 0.6063,0.58763 1.17071,1.14551 l 1.02621,1.01434 -0.31367,0.27115 c -0.53983,0.46664 -1.6093,0.68526 -2.31271,0.47276 z m 0.30316,-4.2483 c -0.74296,-0.84016 -0.69725,-1.66246 0.11425,-2.05531 0.69858,-0.33817 1.66533,0.0694 1.66533,0.70203 0,0.89448 -1.30663,1.8881 -1.77958,1.35328 z m 13.16517,4.94265 c 1.06318,-0.31892 1.68905,-0.9389 1.32018,-1.30776 l -0.26786,-0.26786 -0.50717,0.3412 c -3.11036,2.09251 -6.58567,-1.93516 -4.09103,-4.74125 1.04043,-1.17034 3.09136,-1.30483 4.30178,-0.28209 l 0.28685,0.24237 0.27264,-0.27265 c 0.33912,-0.33912 0.2914,-0.43449 -0.43809,-0.87558 -3.5316,-2.13542 -7.55574,1.45542 -5.77908,5.15681 0.80494,1.67697 3.00232,2.57658 4.90178,2.00681 z m 16.70698,0.0756 c 0.5223,-0.0848 0.6451,-0.13723 1.28482,-0.54905 0.33753,-0.21728 0.36066,-0.46287 0.0694,-0.73651 l -0.2114,-0.1986 -0.27319,0.22987 c -1.21293,1.02061 -3.43725,0.34972 -3.67382,-1.10808 l -0.0497,-0.30652 h 2.39471 2.39472 l -0.0516,-0.6161 c -0.2121,-2.52988 -3.19462,-3.56191 -4.85413,-1.67965 -2.02447,2.29621 -0.12725,5.46727 2.9703,4.96464 z m -2.72362,-3.32369 c -0.4344,-0.19872 0.29303,-1.32233 1.09352,-1.68906 0.99296,-0.45492 2.43457,0.29383 2.6453,1.37393 l 0.0547,0.2802 -1.15314,5.2e-4 c -0.63422,2.8e-4 -1.46351,0.0192 -1.84286,0.0421 -0.37934,0.0229 -0.73822,0.0194 -0.79749,-0.008 z m -143.721455,3.24786 c 0.03556,-0.004 0.06466,-0.54975 0.06466,-1.21361 v -1.20702 l 1.09925,-0.002 c 2.869022,-0.004 4.028744,-0.77383 4.026119,-2.67098 -0.0028,-2.00913 -1.284177,-2.72762 -4.737398,-2.65629 l -1.293235,0.0267 -0.02244,3.85262 -0.02244,3.85262 0.281085,0.0293 c 0.154596,0.0161 0.33928,0.0216 0.410408,0.0121 0.07113,-0.009 0.158421,-0.0202 0.193985,-0.0238 z m 0.122139,-3.34027 c -0.03161,-0.0316 -0.05748,-0.84635 -0.05748,-1.81052 v -1.75306 h 1.277587 c 1.81561,0 2.393008,0.2005 2.783876,0.96666 0.512618,1.00481 -0.02432,2.26895 -1.087023,2.55924 -0.370811,0.10129 -2.821695,0.13295 -2.916962,0.0377 z m 7.471538,3.34246 c 0.03925,-0.005 0.04747,-1.82255 0.01828,-4.03937 l -0.05309,-4.03058 -0.37077,-0.0257 -0.37077,-0.0257 -0.05316,4.02769 c -0.06189,4.68917 -0.157914,4.21527 0.82951,4.09368 z m 5.214331,-0.29041 0.447645,-0.3216 0.0013,0.23695 c 0.0019,0.33969 0.08394,0.41084 0.472866,0.41007 l 0.344862,-6.9e-4 v -2.1985 c 0,-2.68891 -0.11525,-3.01414 -1.250126,-3.52786 -1.287715,-0.5829 -3.920371,0.29713 -3.243378,1.08418 l 0.205247,0.23861 0.333601,-0.21401 c 1.361627,-0.87349 2.986054,-0.45809 3.067341,0.7844 l 0.02516,0.38456 -1.207019,0.0502 c -2.095711,0.0871 -2.819454,0.55355 -2.813429,1.81322 0.007,1.45946 2.250412,2.24152 3.615911,1.2605 z m -2.181932,-0.45056 c -0.770341,-0.41278 -0.757981,-1.51005 0.02005,-1.78032 0.369056,-0.1282 2.423268,-0.12227 2.552904,0.007 0.833903,0.83391 -1.423059,2.38912 -2.572959,1.77296 z m 6.336849,-1.22146 0.04311,-1.99676 0.265371,-0.32763 c 0.690097,-0.852 1.996913,-0.9767 2.775287,-0.26482 0.360813,0.32999 0.451075,0.88698 0.451075,2.7835 v 1.7442 l 0.341698,0.0577 c 0.529504,0.0895 0.520458,0.12373 0.520458,-1.97187 0,-3.6726 -1.971891,-5.24856 -4.077769,-3.25899 -0.281181,0.26566 -0.421656,0.1609 -0.38407,-0.28641 0.02138,-0.25443 0.01435,-0.25907 -0.430898,-0.2847 l -0.452632,-0.0261 v 2.94034 2.94034 l 0.452632,-0.0261 0.452632,-0.0261 z m 14.656657,0.22933 0.04311,-1.76742 h 2.185039 c 2.640187,0 2.333021,-0.23602 2.360954,1.81416 l 0.02344,1.72009 0.387971,-0.009 0.38797,-0.009 0.02244,-3.84873 0.02244,-3.84873 h -0.430104 -0.430104 l -0.02342,1.65965 -0.02341,1.65966 -2.263161,0.023 -2.26316,0.023 v -1.68264 -1.68264 H 65.132323 64.71511 l -0.0568,2.39249 c -0.03124,1.31586 -0.05688,3.06376 -0.05697,3.88421 l -1.67e-4,1.49172 0.452632,-0.0261 0.452632,-0.0261 z m 11.563452,1.52599 c 0.760564,-0.45866 0.803354,-0.51275 0.646146,-0.81676 -0.203498,-0.39352 -0.264713,-0.3992 -0.702319,-0.0652 -0.219269,0.16737 -0.424796,0.306 -0.456728,0.30807 -0.03193,0.002 -0.232645,0.0388 -0.446028,0.0815 -1.189192,0.23842 -2.672685,-0.67314 -2.672685,-1.64227 v -0.24426 l 1.314788,0.011 c 0.723134,0.006 1.79541,0.004 2.382836,-0.005 l 1.068048,-0.0157 -0.05642,-0.53885 c -0.392984,-3.75323 -5.63177,-3.53176 -5.608255,0.23709 0.01425,2.2841 2.629136,3.8366 4.530618,2.6899 z m -3.71783,-3.21063 c 0,-0.43184 0.744107,-1.30765 1.31202,-1.54423 1.073282,-0.44712 2.311458,0.23854 2.6002,1.4399 l 0.05698,0.23709 h -1.984603 c -1.729433,0 -1.984602,-0.0171 -1.984602,-0.13276 z m 13.428925,-0.61552 0.02239,-4.06758 -0.194825,-0.0283 c -0.107154,-0.0156 -0.301517,-0.0139 -0.431919,0.004 l -0.237093,0.032 v 4.02798 c 0,4.44042 -0.03389,4.13817 0.46152,4.11589 l 0.357529,-0.0161 z m 7.349042,2.12773 c 0.03524,-1.58571 0.06916,-1.98707 0.185794,-2.1985 0.658553,-1.19376 2.585917,-1.2204 3.119166,-0.0431 0.05878,0.12978 0.115363,1.00458 0.1422,2.1985 l 0.04457,1.98296 h 0.431078 0.431079 l -0.02713,-2.02606 c -0.0481,-3.5923 -1.539048,-4.9081 -3.814466,-3.36639 -0.613017,0.41535 -0.598508,0.44568 -0.598508,-1.25087 v -1.5135 l -0.409525,0.0263 -0.409524,0.0263 -0.02247,3.96592 c -0.02573,4.54069 -0.06461,4.19921 0.474223,4.16467 l 0.410403,-0.0263 z m 10.105214,-0.92682 c -0.0274,-3.12352 -0.0299,-3.10966 0.422,-2.32702 3.10045,5.36983 2.46586,5.22917 4.81917,1.06813 1.21488,-2.14811 1.16006,-2.20819 1.0927,1.19744 -0.0617,3.1215 -0.10169,2.90323 0.53461,2.91992 l 0.31254,0.008 0.0224,-3.84861 0.0224,-3.84862 -0.32419,-0.0396 c -0.47624,-0.0582 -0.49211,-0.0435 -1.02655,0.95576 -0.37493,0.701 -2.09341,3.66567 -2.59363,4.47446 -0.10594,0.17129 -0.21119,0.038 -0.78509,-0.99416 -0.29754,-0.53514 -0.7655,-1.33048 -1.03989,-1.76742 -0.2744,-0.43694 -0.74374,-1.23285 -1.04298,-1.76868 l -0.54407,-0.97424 -0.35326,0.0259 -0.35326,0.0259 -0.0224,3.90579 -0.0224,3.90579 0.45351,-0.0261 0.45351,-0.0261 z m 17.05271,0.92269 c 0.0513,-2.3118 0.0902,-2.42009 1.05271,-2.93013 1.65446,-0.87669 2.51881,0.22659 2.46768,3.1498 l -0.0287,1.6381 0.31379,0.0775 c 0.60462,0.14941 0.59148,0.19291 0.59148,-1.95788 0,-2.51759 -0.14841,-3.01409 -1.05907,-3.54297 -0.91213,-0.52975 -2.59205,-0.35438 -3.15992,0.32986 -0.18147,0.21866 -0.25255,0.16035 -0.28082,-0.23037 l -0.0265,-0.36641 h -0.38797 -0.38797 l -0.0277,2.78859 c -0.032,3.23205 -0.0612,3.04883 0.47941,3.01417 l 0.4104,-0.0263 z m 7.19509,1.57757 c -0.002,-0.20153 -0.0119,-1.51306 -0.0216,-2.91451 l -0.0176,-2.54808 -0.40953,0.0263 -0.40952,0.0263 -0.0227,2.91432 -0.0227,2.91432 0.45378,-0.0261 0.45378,-0.0261 z m 10.00493,0.17487 c 2.59023,-1.3685 1.74069,-5.52747 -1.16391,-5.69803 -3.40482,-0.19992 -4.48435,4.63804 -1.29277,5.7936 0.5721,0.20714 1.98798,0.15206 2.45668,-0.0956 z m -1.86777,-0.53325 c -1.59936,-0.32756 -2.1107,-2.8451 -0.78906,-3.88484 1.36321,-1.07243 3.32807,-0.0875 3.33709,1.67285 0.008,1.46604 -1.17555,2.49308 -2.54803,2.21199 z m 5.6397,0.70805 c 0.13536,-0.0341 0.15095,-0.17258 0.15153,-1.34696 0.001,-2.61781 0.37712,-3.45039 1.61765,-3.58371 l 0.49398,-0.0531 0.0261,-0.45264 c 0.0256,-0.44497 0.022,-0.45259 -0.21554,-0.45052 -0.48081,0.004 -1.01741,0.18503 -1.43121,0.48231 -0.47811,0.34349 -0.51275,0.33584 -0.52551,-0.116 -0.009,-0.33414 -0.40952,-0.50406 -0.71435,-0.30339 -0.0811,0.0534 -0.17949,4.77812 -0.12035,5.77745 0.006,0.10617 0.38369,0.13065 0.71774,0.0465 z m 26.90164,-0.0315 c 0.17911,-0.0497 0.46039,-0.20873 0.62506,-0.35331 0.16467,-0.14458 0.30489,-0.22976 0.3116,-0.18928 0.007,0.0405 0.0164,0.17058 0.0216,0.28913 0.009,0.19818 0.0462,0.21765 0.46757,0.24179 l 0.45822,0.0263 -0.0272,-2.09542 -0.0271,-2.09543 -0.2436,-0.49608 c -0.60334,-1.22868 -2.34063,-1.57105 -3.90731,-0.77004 -0.67545,0.34535 -0.73952,0.48094 -0.41146,0.87081 l 0.2226,0.26455 0.35936,-0.2424 c 1.02583,-0.69195 2.29448,-0.66171 2.8134,0.067 0.22716,0.31902 0.34562,1.12387 0.16599,1.12772 -2.8062,0.06 -3.36632,0.21341 -3.78635,1.03674 -0.76779,1.50499 0.97281,2.86911 2.95765,2.31792 z m -1.62333,-0.73208 c -0.73155,-0.36104 -0.74317,-1.35558 -0.0202,-1.72943 0.32076,-0.16588 1.40612,-0.25253 2.09105,-0.16696 l 0.49609,0.062 -0.0351,0.5515 c -0.0698,1.09575 -1.47167,1.8061 -2.53181,1.2829 z m 6.33364,-1.0404 c 0.0116,-2.38538 0.24592,-2.87083 1.52868,-3.16666 0.52638,-0.12139 0.58974,-0.23408 0.41393,-0.73615 -0.0982,-0.28045 -1.22784,0.0578 -1.72583,0.51673 -0.22392,0.20637 -0.29536,0.13811 -0.29536,-0.28221 v -0.33049 h -0.43108 -0.43108 v 2.88822 2.88822 h 0.46606 0.46605 z m 19.33725,-8.49323 c 2.06532,-0.44051 2.99134,-1.55112 4.77104,-5.7221 0.50582,-1.18547 1.31805,-3.06713 1.80496,-4.18146 0.4869,-1.11434 1.06275,-2.45284 1.27966,-2.97444 0.21691,-0.52161 0.96296,-2.22868 1.6579,-3.79349 0.69494,-1.56481 1.3351,-3.0488 1.42259,-3.29775 l 0.15906,-0.45263 h -1.46102 c -1.12802,0 -1.46102,0.0251 -1.46102,0.11013 0,0.12391 -0.28982,0.82894 -1.81537,4.41619 -0.5848,1.37514 -1.47625,3.48958 -1.981,4.69875 -0.96147,2.30331 -1.08208,2.48359 -1.28529,1.92109 -0.0981,-0.27157 -1.46852,-3.4666 -1.73,-4.03337 -0.29675,-0.64324 -1.57452,-3.59114 -2.25078,-5.1927 l -0.80925,-1.91651 -1.48722,-0.002 c -0.81797,-9.9e-4 -1.48722,0.0184 -1.48722,0.0432 0,0.0478 2.08977,4.82517 2.6957,6.16257 0.11816,0.2608 0.42812,0.95914 0.68879,1.55188 0.26067,0.59273 0.55452,1.25228 0.653,1.46566 0.20538,0.44503 1.81427,4.16145 2.16478,5.00051 0.2786,0.66691 0.23841,0.93783 -0.30109,2.0297 -0.96602,1.95506 -2.72987,2.41759 -4.56763,1.19776 -0.27616,-0.18331 -0.51534,-0.2936 -0.53151,-0.2451 -0.0162,0.0485 -0.26144,0.50546 -0.54504,1.01544 -0.61651,1.10863 -0.60805,1.01706 -0.1248,1.34955 1.15996,0.79807 3.08865,1.15866 4.54076,0.84894 z M 45.633726,212.9085 c 0.72835,-0.24222 1.566987,-0.74377 2.013145,-1.20397 0.471059,-0.48588 0.469489,-0.48737 0.455847,0.43108 l -0.01185,0.79749 h 2.094965 2.094964 l -0.0063,-4.80696 c -0.0091,-6.93748 -0.276843,-7.9529 -2.493316,-9.45482 -2.791581,-1.89162 -8.628369,-1.63665 -11.377746,0.49702 l -0.203696,0.15808 0.750962,1.50108 c 0.413029,0.82559 0.769238,1.53079 0.791576,1.56709 0.02234,0.0363 0.202835,-0.0334 0.401106,-0.15495 3.406222,-2.08796 7.216634,-1.50002 7.531929,1.16216 l 0.04926,0.41591 -2.403329,5.5e-4 c -5.464646,0.001 -7.703545,1.34735 -7.703545,4.63163 0,3.42376 4.163779,5.7397 8.016007,4.45861 z m -2.361333,-3.0317 c -1.473635,-0.59158 -1.547961,-2.55739 -0.116937,-3.09281 0.430722,-0.16115 2.367206,-0.24784 4.364581,-0.19539 l 0.291321,0.008 -0.06182,0.79031 c -0.158669,2.02828 -2.451334,3.30349 -4.47714,2.49024 z m 38.936201,3.14975 c 0.694605,-0.1329 1.646237,-0.48784 1.88341,-0.70248 0.157351,-0.1424 -0.0075,-0.71566 -0.742407,-2.58095 -0.280031,-0.7108 -0.338276,-0.79086 -0.488618,-0.67167 -0.845392,0.67024 -2.468085,0.55391 -3.059646,-0.21934 l -0.241756,-0.31601 -0.0639,-3.40551 c -0.03515,-1.87304 -0.04606,-3.45402 -0.02426,-3.51329 0.03004,-0.0816 0.489532,-0.10777 1.895985,-0.10777 h 1.856342 v -1.76742 -1.76742 h -1.844412 c -2.200273,0 -1.964797,0.23452 -1.947776,-1.93985 0.0071,-0.90096 0.0096,-1.6866 0.0058,-1.74587 -0.0055,-0.0832 -0.508003,-0.10777 -2.205559,-0.10777 h -2.198499 l -0.008,1.3579 c -0.0044,0.74684 -0.0015,1.52195 0.0064,1.72246 0.02869,0.72681 0.05276,0.71313 -1.254339,0.71313 h -1.158101 v 1.76499 1.76498 l 1.166417,0.024 1.166417,0.024 0.0197,3.92281 0.0197,3.92281 0.223505,0.57581 c 0.975677,2.5136 3.668105,3.68876 6.993628,3.05248 z m 11.513231,-0.008 c 3.260065,-0.52873 5.128067,-2.49506 4.90656,-5.16484 -0.204437,-2.46404 -1.656416,-3.46216 -6.162021,-4.23588 -2.39917,-0.41199 -3.027348,-0.74403 -2.92012,-1.54347 0.192187,-1.43286 3.86827,-1.62919 6.462608,-0.34516 l 0.5856,0.28984 0.07319,-0.19001 c 0.04025,-0.10451 0.368387,-0.80671 0.729189,-1.56045 0.787901,-1.64599 0.780992,-1.45268 0.06481,-1.81334 -2.685176,-1.35224 -7.047539,-1.43975 -9.572335,-0.19203 -3.29014,1.62594 -3.723994,5.92068 -0.765165,7.5744 1.003458,0.56084 1.813503,0.78263 4.498449,1.23166 2.285548,0.38223 3.138393,1.07314 2.403188,1.94689 -0.956638,1.1369 -4.005853,0.9439 -6.855372,-0.4339 -0.915991,-0.4429 -0.871946,-0.4566 -1.244156,0.38701 -1.121783,2.54252 -1.115288,2.50742 -0.524316,2.83395 2.016643,1.11425 5.660864,1.64658 8.319897,1.21533 z m 37.557715,1.6e-4 c 1.47028,-0.2564 2.54818,-0.74686 3.60892,-1.64212 0.80228,-0.67712 0.79461,-0.59643 0.12932,-1.3607 -0.29637,-0.34046 -0.62202,-0.72536 -0.72369,-0.85534 -0.24443,-0.3125 -0.35342,-0.29606 -0.76353,0.11515 -2.39689,2.40337 -7.29724,1.65698 -8.74862,-1.33254 -0.4142,-0.85314 -0.64442,-1.60384 -0.49336,-1.60873 0.0567,-0.002 2.80922,-3.8e-4 6.11666,0.003 l 6.01355,0.007 -6.6e-4,-0.93005 c -0.004,-5.31029 -4.33996,-8.70783 -9.43996,-7.3964 -6.89248,1.77235 -7.58657,11.69626 -1.01045,14.44714 1.51995,0.63582 3.5987,0.85254 5.31182,0.5538 z m -6.99851,-8.82576 c -0.0724,-0.1889 0.2933,-1.21051 0.64792,-1.80988 1.81675,-3.07074 6.50452,-2.99422 8.24354,0.13455 0.36691,0.66015 0.69364,1.57939 0.59591,1.67658 -0.13199,0.13123 -9.43704,0.13002 -9.48737,-0.001 z m 21.26132,8.75333 c 0.90776,-0.23577 1.93566,-0.78633 2.47907,-1.32781 0.4828,-0.48108 0.46755,-0.49731 0.46755,0.49793 v 0.86435 l 1.3415,-0.0237 1.3415,-0.0238 -0.008,-4.9658 c -0.008,-5.57072 -0.0577,-6.14499 -0.62391,-7.27422 -1.69783,-3.38615 -8.30488,-3.99382 -11.88557,-1.09315 l -0.2101,0.17019 0.24541,0.50329 c 0.19439,0.39868 0.76662,1.41368 0.884,1.568 0.0126,0.0166 0.37067,-0.18274 0.79571,-0.44292 2.93938,-1.79924 6.51775,-1.56206 7.51505,0.4981 0.28535,0.58946 0.55686,2.2823 0.36686,2.28734 -0.0356,9.5e-4 -1.36436,0.0138 -2.95289,0.0286 -2.36578,0.022 -2.98959,0.0532 -3.44862,0.17223 -5.62014,1.45762 -5.16997,7.5205 0.64662,8.70866 0.61782,0.1262 2.30691,0.0445 3.04536,-0.1473 z m -2.74361,-2.16246 c -1.5063,-0.41913 -2.21501,-1.59633 -1.79833,-2.98709 0.37555,-1.25349 1.3079,-1.54073 5.00986,-1.54347 l 2.30627,-0.002 -7e-5,1.01303 c -1.7e-4,2.62416 -2.65323,4.3163 -5.51773,3.51924 z m 26.46168,2.18856 c 1.81696,-0.5035 1.85097,-0.60837 0.87023,-2.68263 l -0.1085,-0.22947 -0.60201,0.31446 c -1.06671,0.5572 -2.29089,0.48537 -3.0453,-0.1787 -0.7105,-0.6254 -0.68126,-0.39399 -0.68369,-5.41016 l -0.002,-4.4401 2.06918,-0.0431 2.06917,-0.0431 0.0241,-1.14235 0.024,-1.14236 h -2.0626 c -2.4431,0 -2.1763,0.21692 -2.16684,-1.76173 0.004,-0.80924 0.005,-1.51985 0.003,-1.57913 -0.003,-0.0817 -0.3476,-0.10777 -1.42621,-0.10777 h -1.42256 v 1.62086 c 0,1.98032 0.11244,1.83306 -1.34921,1.76699 -0.66609,-0.0301 -1.15262,-0.0192 -1.15477,0.0259 -0.009,0.17972 -0.0129,2.1561 -0.005,2.2549 0.007,0.0806 0.31127,0.10777 1.21093,0.10777 h 1.20222 l 0.0284,4.63409 0.0284,4.63409 0.226,0.62357 c 0.86759,2.39383 3.48151,3.55144 6.27271,2.77796 z M 15.579793,211.46744 c 0.01829,-0.80612 0.03723,-2.05732 0.04208,-2.78046 l 0.0088,-1.31479 2.306268,-0.002 c 3.218145,-0.003 4.387753,-0.14664 5.77893,-0.70921 5.827976,-2.35672 5.672822,-10.72894 -0.238344,-12.86122 -1.699375,-0.613 -2.133096,-0.64971 -7.695976,-0.65142 l -4.892737,-0.002 v 9.91619 9.91618 l 2.328852,-0.0229 2.328853,-0.0229 z m 0.02575,-8.02883 c -0.07657,-0.0766 -0.07681,-5.88097 -2.54e-4,-6.26374 l 0.05232,-0.26162 2.292806,0.058 c 2.461113,0.0622 2.891869,0.1142 3.588547,0.43315 2.394563,1.09626 2.314446,4.60716 -0.13183,5.77703 l -0.560401,0.268 -2.588102,0.0271 c -1.423455,0.0149 -2.617346,-0.002 -2.65309,-0.0379 z m 19.423663,-0.9376 v -10.4752 H 32.74449 30.459776 v 10.4752 10.4752 h 2.284714 2.284714 z m 25.192908,5.97043 c 0.0286,-5.11945 0.01242,-4.99808 0.793862,-5.95695 1.327317,-1.62869 4.107542,-1.56421 4.964279,0.11513 0.424066,0.83124 0.448828,1.13906 0.471689,5.86338 l 0.02148,4.4401 2.253848,0.023 2.253848,0.023 v -4.99241 c 0,-6.07375 -0.05607,-6.51263 -1.028893,-8.05298 -1.798837,-2.84826 -6.456981,-3.39889 -9.319409,-1.10164 -0.702802,0.56403 -0.687299,0.57267 -0.687299,-0.38316 v -0.81905 h -2.112283 -2.112283 l -0.0032,1.78897 c -0.0018,0.98394 -0.0155,3.57364 -0.03049,5.7549 -0.01499,2.18125 -0.01143,4.82915 0.0079,5.88421 l 0.03516,1.9183 h 2.233331 2.23333 z m 44.124456,0.0209 v -4.48385 l 5.49625,0.0222 5.49624,0.0222 0.0152,4.44011 0.0152,4.4401 1.47508,0.0236 1.47508,0.0236 -0.0102,-9.67976 c -0.006,-5.32386 -0.0311,-9.78738 -0.0567,-9.91893 l -0.0465,-0.23918 -1.39056,0.0236 -1.39055,0.0236 -0.0224,4.09068 c -0.0172,3.14103 -0.0472,4.10645 -0.12932,4.15859 -0.0588,0.0373 -2.49294,0.0679 -5.40918,0.0679 -2.91624,0 -5.35037,-0.0306 -5.40917,-0.0679 -0.0821,-0.0521 -0.11212,-1.01756 -0.12933,-4.15859 l -0.0224,-4.09068 h -1.42256 -1.42255 l -0.0219,9.89325 -0.0219,9.89324 h 1.46603 1.46603 z m 53.77734,-6.0129 -0.0219,-10.49676 h -1.42256 -1.42256 l -2.3e-4,10.43209 c -2.8e-4,12.27055 -0.23838,10.56142 1.47133,10.56142 h 1.41781 z m 17.95899,5.88421 c 0.0513,-4.87478 0.0487,-4.84595 0.52044,-5.80833 1.30191,-2.65581 5.53625,-3.05934 7.10014,-0.67664 0.70241,1.07018 0.69265,0.98311 0.70767,6.31254 l 0.0134,4.74186 1.43075,0.0236 1.43075,0.0236 -5.1e-4,-4.63618 c -5.5e-4,-5.01693 -0.0486,-5.73209 -0.46613,-6.93259 -1.3164,-3.78531 -6.44787,-4.90115 -10.01671,-2.17813 -0.39771,0.30346 -0.7458,0.55174 -0.77352,0.55174 -0.0277,0 -0.0378,-1.75557 -0.0223,-3.90126 l 0.0281,-3.90126 -1.32361,-0.0155 c -0.72799,-0.008 -1.36868,0.002 -1.42377,0.023 -0.10433,0.04 -0.19391,20.74418 -0.0905,20.91154 0.0271,0.0438 0.66702,0.0682 1.44323,0.055 l 1.39462,-0.0237 z M 72.921455,184.41606 c 0.0068,-0.0112 0.276448,-0.67988 0.599167,-1.486 0.95093,-2.37531 2.225123,-4.91819 3.3049,-6.59549 0.738472,-1.14713 1.876641,-2.83057 2.1276,-3.14687 0.150488,-0.18968 0.656116,-0.82983 1.123617,-1.42256 2.85992,-3.62602 6.011696,-6.66344 10.475331,-10.09528 0.403058,-0.30989 1.094049,-0.806 1.535536,-1.10247 l 0.802703,-0.53903 0.595142,0.13536 c 0.627121,0.14264 3.039361,0.48697 4.567379,0.65197 0.497895,0.0538 1.21564,0.13264 1.594989,0.17527 6.311891,0.70936 14.034911,-0.23653 19.527841,-2.39171 2.02106,-0.79297 5.75234,-2.72087 6.11031,-3.1571 0.15936,-0.1942 0.17317,-0.19702 -1.17477,0.24042 -7.90321,2.56484 -15.82483,2.92432 -24.506489,1.1121 -1.553025,-0.32418 -1.641409,-0.41245 -0.824816,-0.82378 0.192846,-0.0971 0.885377,-0.51138 1.538955,-0.92052 1.74803,-1.09428 2.23379,-1.39648 2.49515,-1.55227 0.47058,-0.28052 2.63171,-1.6475 3.44643,-2.17998 0.45989,-0.30057 1.11701,-0.72108 1.46026,-0.93446 0.6127,-0.38088 4.52424,-2.97434 5.0319,-3.33628 0.24891,-0.17746 0.37072,-0.18615 3.23309,-0.23051 7.93825,-0.12304 13.876,-2.02475 18.88122,-6.04717 1.61741,-1.29982 1.64886,-1.37025 0.33374,-0.74746 -1.71818,0.81367 -1.84081,0.86251 -3.73925,1.48929 -2.87001,0.94754 -6.00668,1.55152 -8.684,1.67214 -1.39621,0.0629 -4.63632,-0.0361 -4.63632,-0.14159 0,-0.0782 0.56089,-0.60577 0.94842,-0.89201 0.61463,-0.45399 1.99099,-1.61041 2.97439,-2.49908 0.37935,-0.34281 0.88938,-0.79369 1.13339,-1.00196 1.00902,-0.86119 4.02909,-3.98086 5.41883,-5.59753 0.42668,-0.49634 0.79897,-0.92184 0.82732,-0.94555 0.0912,-0.0763 1.83205,-2.2629 2.34111,-2.9406 0.519,-0.69092 1.62445,-2.29375 2.28288,-3.31004 0.21506,-0.33193 0.5558,-0.85569 0.75722,-1.16391 1.20879,-1.84977 2.894,-4.8502 2.78523,-4.95897 -0.0241,-0.0241 -0.31936,0.29612 -0.65606,0.71168 -0.3367,0.41556 -0.95819,1.18395 -1.38108,1.70754 -1.20768,1.49523 -2.97773,3.3324 -6.35757,6.59864 -0.86147,0.83252 -4.01591,3.56818 -5.13654,4.45461 -0.25456,0.20137 -0.88746,0.70323 -1.40644,1.11524 -0.94634,0.7513 -1.81061,1.394 -2.93611,2.18339 -0.33193,0.23281 -1.14667,0.81408 -1.81053,1.29173 -1.83177,1.31796 -5.57562,3.79441 -5.73632,3.79441 -0.13891,0 -0.10303,-4.21475 0.0455,-5.34062 0.57775,-4.38039 1.99663,-8.70228 3.5081,-10.68556 0.26613,-0.34921 0.21402,-0.61024 -0.0695,-0.34827 -4.16349,3.84678 -7.0614,10.73258 -7.58063,18.01254 -0.0845,1.18429 0.20139,0.9296 -3.48739,3.10723 -1.30401,0.76981 -2.51754,1.49261 -2.69673,1.60623 -0.1792,0.11362 -0.45078,0.27791 -0.60351,0.36508 -1.698884,0.96963 -2.772897,1.60624 -4.200522,2.48982 -0.497896,0.30816 -1.254438,0.77608 -1.681205,1.03983 -3.204148,1.98019 -8.20131,5.48872 -10.507477,7.37735 -0.46823,0.38345 -0.953193,0.77328 -1.077696,0.86629 -0.687198,0.51334 -2.737651,2.37172 -4.522181,4.09857 -2.694494,2.6074 -6.130451,6.85376 -8.022252,9.91438 -1.631925,2.64018 -3.192754,5.61026 -4.055276,7.71672 -0.271828,0.66386 -0.624132,1.51641 -0.782899,1.89455 -0.158767,0.37815 -0.27572,0.70849 -0.259896,0.73409 0.027,0.0437 6.699118,0.022 6.725879,-0.0218 z m 44.250845,-4.94814 c 0.44647,-0.33073 0.61376,-0.73538 1.87559,-4.53685 0.69604,-2.0969 1.29689,-3.86918 1.33525,-3.93839 0.0576,-0.10387 0.38339,-0.12645 1.86671,-0.12932 l 1.79699,-0.003 0.89937,-0.55261 c 7.6015,-4.67078 13.09996,-10.42466 17.26783,-18.06996 2.2354,-4.1005 3.23394,-6.61916 4.85363,-12.24262 0.58274,-2.02321 1.38501,-6.73141 1.67478,-9.82858 0.45687,-4.88312 0.26445,-10.02363 -0.59704,-15.9499 -0.21279,-1.46383 -0.69763,-3.77226 -1.22227,-5.81955 -0.40414,-1.57704 -1.27321,-4.64924 -1.36175,-4.81384 -0.0455,-0.0846 -0.37521,0.0978 -1.24641,0.68973 -3.36539,2.23315 -6.91124,4.31669 -10.6986,5.76221 -0.0211,0 -0.28185,0.10977 -0.5794,0.24395 -1.61112,0.72649 -5.11072,1.95112 -8.04177,2.81409 -1.75485,0.51667 -3.39777,0.94394 -9.65615,2.51123 -2.93995,0.73626 -5.61694,1.41449 -5.94887,1.50719 -0.33194,0.0927 -0.749,0.20824 -0.92682,0.25677 l -0.32331,0.0882 v 2.50684 2.50685 l 0.19398,-0.0464 c 0.1067,-0.0255 0.95053,-0.25935 1.87519,-0.51957 0.92467,-0.26022 2.67053,-0.71543 3.87971,-1.01159 6.56474,-1.60786 10.51065,-2.61916 11.98397,-3.07138 0.54531,-0.16738 1.20486,-0.36088 1.46567,-0.42999 0.76568,-0.2029 4.98607,-1.61977 5.73333,-1.92479 0.0948,-0.0387 0.638,-0.2518 1.20702,-0.47352 1.08435,-0.42252 1.31097,-0.51787 2.15539,-0.90689 1.98515,-0.91453 3.79963,-1.79667 4.35389,-2.11672 5.00647,-2.39738 3.15178,15.11405 2.90544,18.11088 -0.74195,6.59396 -1.94826,11.16955 -4.4323,16.81205 -1.52367,3.46101 -4.15585,7.71193 -6.35024,10.25551 -1.52436,1.76694 -2.38424,2.70089 -3.24745,3.52722 -1.45927,1.3969 -3.6561,3.1254 -5.77371,4.54284 -0.45048,0.30153 -0.91968,0.6275 -1.04266,0.72437 -0.12299,0.0969 -0.36808,0.28921 -0.54464,0.4274 -0.34615,0.27092 -0.36798,0.52159 -0.0738,0.84799 0.0748,0.083 0.12026,0.15534 0.10106,0.1608 -0.0192,0.005 -0.81345,0.0367 -1.765,0.0694 -2.36988,0.0815 -2.42958,0.12388 -3.04756,2.16227 -1.2167,4.01318 -1.24498,4.05924 -1.62773,2.65113 -0.145,-0.53346 -0.34701,-1.24151 -0.44891,-1.57344 -0.10189,-0.33193 -0.47503,-1.65103 -0.82919,-2.93133 -1.40969,-5.09609 -1.52923,-5.31787 -2.80043,-5.19573 -0.67887,0.0652 -1.14554,0.62579 -1.4904,1.79021 -0.3802,1.28378 -0.96472,3.17957 -1.30253,4.22457 -0.20694,0.64015 -0.434,1.3579 -0.50457,1.59499 -0.7653,2.57123 -0.69633,2.43977 -1.25224,2.38675 -0.32967,-0.0314 -0.35437,-0.0529 -0.4002,-0.34797 -0.0269,-0.17296 -0.0847,-0.45026 -0.12857,-0.61622 l -0.0797,-0.30176 h -3.5594 c -2.37076,0 -3.919283,-0.0384 -4.637091,-0.115 -1.705947,-0.18204 -3.408849,-0.43881 -4.483213,-0.67599 -0.545314,-0.12038 -1.154851,-0.25209 -1.354527,-0.29267 -0.986119,-0.20041 -4.114657,-1.11243 -4.749441,-1.38453 -0.651226,-0.27915 -0.685481,-0.26141 -1.810847,0.93786 -1.089343,1.16089 -2.344845,2.60478 -2.344845,2.6967 0,0.0706 1.331014,0.59003 2.543361,0.99258 3.718272,1.23463 6.152731,1.81201 9.569935,2.26972 5.271498,0.70607 14.096258,0.62906 14.096258,-0.12302 0,-0.0808 0.77386,-2.67497 1.10439,-3.70214 0.1831,-0.56902 0.42658,-1.41274 0.54107,-1.87493 0.15896,-0.64167 0.42292,-1.15202 0.42377,-0.81931 3e-5,0.0119 0.35205,1.24366 0.78228,2.73735 0.43022,1.49368 0.81362,2.83218 0.852,2.97444 0.0971,0.35977 0.75459,2.63563 0.9661,3.34388 0.37803,1.2659 1.52105,1.84808 2.37967,1.21203 z M 76.770483,162.07983 c 0.964978,-0.96441 1.903044,-1.87763 2.084591,-2.02938 l 0.330084,-0.27592 -0.156011,-1.26836 c -0.230433,-1.87342 -0.212137,-5.02756 0.03991,-6.88089 0.103819,-0.76338 0.188761,-1.45263 0.188761,-1.53167 0,-0.13129 -0.210588,-0.14173 -2.435591,-0.12082 l -2.435592,0.0229 -0.148662,1.25013 c -0.305909,2.57244 -0.295592,6.11099 0.02589,8.88021 0.176939,1.52412 0.59795,3.70727 0.714934,3.70727 0.02044,0 0.826701,-0.78906 1.79168,-1.75347 z m 16.675909,-14.61826 c 0.452007,-0.2053 0.823356,-0.6609 1.103869,-1.35432 0.123,-0.30406 0.325752,-0.80508 0.45056,-1.11339 1.144898,-2.82819 4.166511,-4.69377 7.609019,-4.69791 2.66088,-0.003 2.80693,-3.80494 0.15842,-4.12379 -4.71814,-0.56801 -10.217039,3.139 -12.000827,8.09019 -0.788654,2.18904 0.779626,4.06188 2.678959,3.19922 z m -8.631913,-0.56231 c 0.756462,-0.31607 1.072294,-0.88154 1.472788,-2.63691 1.635124,-7.16675 8.313251,-12.41505 15.797373,-12.41505 1.79534,0 2.55804,-0.65987 2.54644,-2.20312 -0.0151,-2.01033 -1.9316,-2.463 -6.535143,-1.54359 -7.863572,1.5705 -14.257241,7.85131 -15.995839,15.71348 -0.514016,2.32445 0.843165,3.86703 2.714381,3.08519 z m -8.71353,-0.24204 c 0.845081,-0.25096 1.283651,-0.99347 1.516395,-2.5673 0.359505,-2.43099 1.66081,-6.02327 3.027006,-8.35612 1.263929,-2.15822 4.272894,-5.68895 5.749468,-6.74644 0.176911,-0.1267 0.39925,-0.29325 0.494088,-0.37012 0.14441,-0.11704 1.325432,-0.95241 1.76742,-1.25015 1.487641,-1.00213 3.629953,-2.0277 5.604016,-2.68277 2.645353,-0.87783 4.418,-1.19016 7.688098,-1.35459 2.37452,-0.1194 3.44958,-1.58322 2.35421,-3.20554 -0.76399,-1.13154 -3.38902,-1.22567 -7.973133,-0.2859 -0.355639,0.0729 -0.74361,0.15104 -0.862156,0.17363 -0.274016,0.0522 -1.316647,0.34688 -1.767421,0.49953 -6.412274,2.1714 -11.210605,5.5031 -14.711773,10.21505 -2.941371,3.95856 -4.511514,7.59542 -5.595585,12.96085 -0.430298,2.12969 0.842073,3.5244 2.709367,2.96987 z m -8.546723,-0.27627 c 0.909085,-0.32442 1.282112,-0.94388 1.485255,-2.46646 0.304038,-2.2788 0.898194,-4.93957 1.42399,-6.37696 1.134893,-3.1025 2.20355,-5.2718 3.780017,-7.67319 1.650134,-2.5136 4.637092,-5.82861 6.680804,-7.41454 0.274978,-0.21339 0.739957,-0.5748 1.033288,-0.80315 0.729127,-0.5676 2.015628,-1.43846 2.12501,-1.43846 0.04924,0 0.08983,-0.0291 0.0902,-0.0647 3.7e-4,-0.0356 0.08766,-0.10682 0.193985,-0.15835 0.106322,-0.0515 0.513215,-0.29216 0.904206,-0.53473 1.630061,-1.01129 4.612157,-2.34544 6.31568,-2.82555 0.213384,-0.0601 0.909539,-0.26907 1.547011,-0.46429 2.534729,-0.77623 5.116775,-1.18539 8.152248,-1.29182 2.72151,-0.0954 3.32091,-0.47321 3.31882,-2.09177 -0.002,-1.81371 -1.21297,-2.28518 -5.043133,-1.96402 -4.129757,0.34629 -7.765537,1.23598 -12.156404,2.97475 -0.752966,0.29817 -3.673963,1.78274 -4.483212,2.27855 -0.331931,0.20337 -0.869384,0.52984 -1.194342,0.7255 -6.366505,3.83327 -12.59824,11.677 -15.014177,18.89797 -1.000013,2.98892 -2.026087,7.48166 -2.026087,8.87135 0,1.28511 1.570913,2.2823 2.866845,1.81983 z"
         id="path64" /><path
         style="fill:#57d1a2"
         d="m 91.78161,147.44217 c -1.806552,-0.69437 -1.646307,-2.92522 0.428049,-5.95905 2.355595,-3.44515 6.932778,-5.74746 10.558601,-5.31096 2.64851,0.31885 2.50246,4.1206 -0.15842,4.12379 -3.442508,0.004 -6.464121,1.86972 -7.609019,4.69791 -0.124808,0.30831 -0.32756,0.80933 -0.45056,1.11339 -0.545392,1.34819 -1.516248,1.8163 -2.768651,1.33492 z m -8.687192,-0.58472 c -1.086879,-0.50432 -1.366521,-1.36024 -0.99432,-3.04338 1.738598,-7.86217 8.132267,-14.14298 15.995839,-15.71348 4.603543,-0.91941 6.520033,-0.46674 6.535143,1.54359 0.0116,1.54325 -0.7511,2.20312 -2.54644,2.20312 -4.804363,0 -9.293603,2.08529 -12.435631,5.77645 -1.135017,1.33338 -2.386232,3.48655 -2.843582,4.8934 -0.08105,0.24932 -0.173242,0.43731 -0.204873,0.41776 -0.03163,-0.0196 -0.06064,0.0674 -0.06446,0.19332 -0.007,0.23148 -0.263489,1.30564 -0.561375,2.35128 -0.365367,1.28252 -1.704873,1.92334 -2.880299,1.37794 z m -8.362916,-0.20065 c -1.652253,-0.58896 -1.774854,-1.38948 -0.809044,-5.28267 1.448774,-5.84002 4.700211,-11.21994 8.956421,-14.81954 3.52756,-2.98337 6.212185,-4.48276 10.820061,-6.04314 0.450774,-0.15265 1.493405,-0.44733 1.767421,-0.49953 0.118546,-0.0226 0.506517,-0.10072 0.862156,-0.17363 4.584113,-0.93977 7.209143,-0.84564 7.973133,0.2859 1.09537,1.62232 0.0203,3.08614 -2.35421,3.20554 -3.270098,0.16443 -5.042745,0.47676 -7.688098,1.35459 -1.974063,0.65507 -4.116375,1.68064 -5.604016,2.68277 -0.441988,0.29774 -1.62301,1.13311 -1.76742,1.25015 -0.09484,0.0769 -0.317177,0.24342 -0.494088,0.37012 -0.478332,0.34257 -3.136045,3.05795 -3.769632,3.85142 -0.878398,1.10006 -1.842038,2.59016 -2.519051,3.89527 -0.201225,0.38791 -0.40259,0.68259 -0.447478,0.65485 -0.04575,-0.0283 -0.05303,-0.004 -0.01658,0.0548 0.0782,0.12652 -0.548486,1.57414 -0.653387,1.5093 -0.04002,-0.0247 -0.05303,0.006 -0.02892,0.0693 0.04623,0.12047 -0.589568,1.99491 -0.654601,1.92988 -0.0208,-0.0208 -0.04129,0.0656 -0.04552,0.19208 -0.0042,0.12645 -0.127684,0.68587 -0.274334,1.24316 -0.14665,0.55729 -0.310538,1.31383 -0.364197,1.68121 -0.31754,2.17405 -1.379949,3.12597 -2.888612,2.58821 z m -8.449132,-0.23346 c -1.382664,-0.33661 -1.747179,-1.1863 -1.419591,-3.3091 1.405844,-9.11003 5.544877,-16.80421 12.28276,-22.83283 1.085261,-0.97102 3.675911,-2.94399 4.582106,-3.48961 0.324958,-0.19566 0.862411,-0.52213 1.194342,-0.7255 0.809249,-0.49581 3.730246,-1.98038 4.483212,-2.27855 4.390867,-1.73877 8.026647,-2.62846 12.156404,-2.97475 3.830167,-0.32116 5.040787,0.15031 5.043137,1.96402 0.002,1.61856 -0.59731,1.99635 -3.31882,2.09177 -3.035477,0.10643 -5.617523,0.51559 -8.152252,1.29182 -0.637472,0.19522 -1.333627,0.40415 -1.547011,0.46429 -1.703523,0.48011 -4.685619,1.81426 -6.31568,2.82555 -0.390991,0.24257 -0.797884,0.4832 -0.904206,0.53473 -0.106322,0.0515 -0.193615,0.12278 -0.193985,0.15835 -3.7e-4,0.0356 -0.04122,0.0647 -0.09078,0.0647 -0.111488,0 -1.226774,0.74673 -1.979066,1.32507 -1.408206,1.08258 -1.542543,1.19504 -2.794144,2.33909 -0.466887,0.42677 -0.885622,0.76528 -0.930523,0.75226 -0.0449,-0.013 -0.0607,0.0102 -0.0351,0.0516 0.05966,0.0965 -0.279307,0.46452 -0.373986,0.406 -0.03924,-0.0243 -0.06602,0.009 -0.05952,0.0746 0.0065,0.0653 -0.203471,0.34617 -0.466604,0.62414 -0.263133,0.27796 -0.702185,0.78446 -0.97567,1.12555 -0.355506,0.44337 -0.538616,0.60694 -0.642379,0.57382 -0.115543,-0.0369 -0.120588,-0.0289 -0.02474,0.0394 0.09653,0.0687 0.01869,0.21129 -0.392705,0.71941 -0.986601,1.21857 -2.332474,3.37658 -3.125318,5.01122 -0.270788,0.5583 -0.525348,0.98507 -0.56569,0.94838 -0.04034,-0.0367 -0.04551,-0.0183 -0.01148,0.0408 0.09274,0.16117 -0.385337,1.18096 -0.487185,1.03922 -0.05676,-0.079 -0.06473,-0.0636 -0.02693,0.0521 0.07698,0.23562 -0.377911,1.3994 -0.486907,1.24568 -0.05911,-0.0834 -0.0698,-0.0582 -0.03741,0.0881 0.02494,0.11262 -0.0276,0.4036 -0.116745,0.64661 -0.237293,0.64686 -0.825505,2.74586 -0.998653,3.56364 -0.08242,0.38927 -0.172684,0.69365 -0.200589,0.6764 -0.0279,-0.0172 -0.05319,0.12983 -0.05619,0.32683 -0.01186,0.77859 -0.246307,2.11362 -0.305151,1.73763 -0.03402,-0.21735 -0.05084,-0.058 -0.04551,0.43108 0.01893,1.73562 -1.119257,2.75197 -2.661432,2.37653 z m 78.44759,-41.47063 c 0.13891,-0.11311 0.14042,-0.13417 0.0161,-0.22504 -0.20149,-0.16283 -0.0987,-0.19888 0.0642,-0.23162 0.0263,-0.0653 0.0464,-0.0485 0.0505,0.0426 0.008,0.17375 0.14561,0.20274 0.20488,0.0431 0.0231,-0.0621 0.0776,-0.0136 0.12865,0.11425 0.0488,0.12212 0.18916,0.2879 0.31203,0.36841 -0.0336,3.87091 -0.99296,-0.46839 -0.77638,-0.1117 z"
         id="path63" /><path
         style="fill:#44a05e"
         d="m 161.34901,228.66466 c -1.83434,-0.48049 -2.94524,-1.92682 -2.94524,-3.83454 0,-3.12518 3.29476,-4.92494 6.05598,-3.30809 0.78487,0.45959 0.804,0.49123 0.49171,0.81342 l -0.26756,0.27606 -0.22065,-0.20449 c -1.4286,-1.32398 -4.06655,-0.74198 -4.9291,1.0875 -1.42756,3.02785 2.51676,6.06814 4.9479,3.81386 l 0.23929,-0.22188 0.24593,0.29474 0.24593,0.29473 -0.2794,0.24165 c -0.90551,0.78317 -2.32085,1.07812 -3.58479,0.74704 z m -116.937773,-0.0257 c -1.60554,-0.45445 -1.753095,-2.30641 -0.243176,-3.0521 0.231161,-0.11416 0.614381,-0.15951 1.638097,-0.19386 l 1.336342,-0.0448 -0.0027,-0.43439 c -0.0078,-1.2621 -1.781069,-1.77416 -3.071265,-0.8869 -0.305447,0.21006 -0.429274,0.19529 -0.626212,-0.0747 l -0.165335,-0.22666 0.251551,-0.20092 c 1.090785,-0.87126 3.009139,-0.91679 3.833768,-0.091 0.567666,0.56847 0.614403,0.79731 0.639743,3.13247 l 0.0228,2.10139 h -0.376516 -0.376516 v -0.34486 c 0,-0.3888 -0.07178,-0.42661 -0.309946,-0.16325 -0.449497,0.49702 -1.675024,0.72747 -2.55064,0.47962 z m 1.623715,-0.61724 c 0.907601,-0.26953 1.656791,-1.72806 1.014281,-1.97462 -0.666603,-0.2558 -2.627763,0.0177 -2.916205,0.40662 -0.743737,1.00294 0.460775,1.99597 1.901924,1.568 z m 12.221134,0.57316 c -0.714382,-0.33527 -0.767723,-0.53392 -0.767628,-2.85876 9.2e-5,-2.24028 0.02479,-2.15213 -0.603592,-2.15409 l -0.431078,-0.001 v -0.32328 -0.32328 l 0.517294,-0.0431 0.517294,-0.0431 -0.02449,-0.5868 -0.02449,-0.5868 0.412458,0.0264 0.412458,0.0264 0.02549,0.58195 0.02549,0.58196 h 0.858218 0.858217 l 1.88e-4,0.36641 1.87e-4,0.36642 -0.857383,-0.0272 -0.857383,-0.0272 -0.05627,0.29992 c -0.465316,2.48035 0.155454,4.33927 1.38046,4.13385 0.619512,-0.10388 0.735058,-0.0729 0.735058,0.19725 0,0.48759 -1.376411,0.74358 -2.120513,0.39437 z m 16.432308,0.0267 c -2.090725,-0.58149 -2.81536,-3.35145 -1.278562,-4.88737 1.728387,-1.72741 4.495705,-0.69336 4.723129,1.76486 l 0.05384,0.58196 h -2.405416 -2.405416 l 0.06011,0.32039 c 0.09849,0.52502 0.619026,1.15903 1.20921,1.47282 0.590914,0.31418 2.543361,0.0594 2.543361,-0.33188 0,-0.15914 0.296312,-0.16019 0.444092,-0.002 0.653241,0.70117 -1.485952,1.48641 -2.944345,1.08078 z m 2.657007,-3.38025 c 0.09512,-0.6695 -1.106627,-1.74677 -1.948615,-1.74677 -0.876643,0 -2.514194,1.57033 -1.988961,1.90732 0.299437,0.19211 3.908378,0.045 3.937576,-0.16055 z m 3.053536,3.43343 c -1.344964,-0.34507 -1.746631,-1.92381 -0.71114,-2.79511 0.400204,-0.33675 0.78664,-0.4195 2.172377,-0.46515 1.438516,-0.0474 1.4178,-0.0352 1.237793,-0.72914 -0.286694,-1.10523 -1.538212,-1.41483 -2.908592,-0.71952 l -0.57722,0.29287 -0.171278,-0.27051 c -0.196952,-0.31107 -0.185528,-0.34819 0.163522,-0.53129 0.141313,-0.0741 0.376174,-0.19724 0.521914,-0.27358 1.158798,-0.60698 2.441342,-0.467 3.24173,0.35383 0.535957,0.54965 0.521558,0.47102 0.580301,3.16893 l 0.04271,1.9614 H 83.6074 83.223745 v -0.34486 c 0,-0.40339 -0.06634,-0.42625 -0.351388,-0.12113 -0.42989,0.46016 -1.62968,0.68972 -2.473416,0.47326 z m 1.770255,-0.74421 c 0.767681,-0.32076 1.34538,-1.5454 0.877001,-1.85912 -0.46927,-0.31431 -2.706279,0.0186 -2.955073,0.43977 -0.611216,1.0347 0.758921,1.97052 2.078072,1.41935 z m 7.838323,0.69825 c -0.851491,-0.30368 -0.921111,-0.5285 -0.921111,-2.97444 v -1.98409 l -0.205585,-0.0516 c -0.113072,-0.0284 -0.336155,-0.0388 -0.49574,-0.0232 -0.278979,0.0273 -0.291185,0.016 -0.316913,-0.29491 -0.02484,-0.30019 -0.0094,-0.32445 0.215539,-0.33922 0.133264,-0.009 0.319892,-0.0243 0.414729,-0.0346 0.09484,-0.0103 0.220927,-0.0225 0.280201,-0.0272 0.07587,-0.006 0.107769,-0.19968 0.107769,-0.65438 v -0.6459 l 0.280201,0.0366 c 0.15411,0.0201 0.328697,0.0392 0.38797,0.0424 0.07534,0.004 0.10777,0.18648 0.10777,0.60621 v 0.60038 l 0.840602,0.0247 0.840603,0.0247 v 0.34486 0.34486 h -0.819049 -0.819048 l -0.0232,1.9151 -0.02319,1.9151 0.250464,0.28032 c 0.262991,0.29434 0.79342,0.37571 1.409019,0.21616 0.291118,-0.0755 0.475782,0.17983 0.328777,0.45452 -0.175641,0.32818 -1.198234,0.45253 -1.839808,0.22372 z m 25.245335,0.0502 c -2.568,-0.67564 -2.86568,-4.29596 -0.45343,-5.51441 2.36633,-1.19524 4.90688,1.25164 3.94668,3.80116 -0.48594,1.29025 -2.09729,2.08053 -3.49325,1.71325 z m 1.92146,-0.91482 c 1.47975,-0.97925 1.17393,-3.63411 -0.47125,-4.09095 -2.33934,-0.6496 -3.76408,2.29572 -1.90854,3.94549 0.57594,0.51208 1.72012,0.58201 2.37979,0.14546 z m 10.5367,-1.88437 v -2.88383 l 0.22287,-0.0559 c 0.5705,-0.14319 0.54961,-0.25809 0.52878,2.90886 l -0.0188,2.86172 -0.36642,0.0265 -0.36641,0.0265 z m 4.04091,2.79051 c -0.89585,-0.27095 -1.0402,-0.67759 -1.10274,-3.10657 l -0.0499,-1.93985 -0.45756,-0.0262 -0.45756,-0.0262 0.0265,-0.31863 0.0265,-0.31863 0.44895,-0.0259 0.44894,-0.0259 0.0252,-0.62068 0.0252,-0.62069 0.40565,-0.0261 0.40566,-0.0261 0.0254,0.62963 0.0254,0.62963 0.81905,0.0431 0.81905,0.0431 v 0.34486 0.34486 h -0.81905 -0.81905 v 1.91216 c 0,2.44833 0.15828,2.72101 1.41664,2.44052 0.48874,-0.10893 0.69564,-0.0127 0.69564,0.32366 0,0.32131 -1.26071,0.56585 -1.90796,0.37008 z m 4.50699,-0.0466 c -2.5347,-0.71243 -2.80835,-4.33595 -0.41226,-5.45899 2.54635,-1.19347 5.11584,1.40405 3.92083,3.96362 -0.60164,1.28867 -2.04912,1.90559 -3.50857,1.49537 z m 1.4304,-0.61125 c 0.78852,-0.15771 1.57045,-1.20877 1.57315,-2.11461 0.008,-2.81969 -3.90878,-3.0963 -4.19775,-0.29643 -0.16107,1.56064 1.09719,2.71652 2.6246,2.41104 z m 12.22222,0.66634 c -2.10921,-0.5537 -2.23303,-2.8445 -0.216,-3.99635 0.41105,-0.23473 0.41237,-0.2428 0.0986,-0.60297 -1.2066,-1.38517 -0.45253,-3.17142 1.33882,-3.17142 1.98974,0 2.51448,1.96189 0.83671,3.12828 -0.77657,0.53988 -0.80187,0.37909 0.23525,1.49533 1.10312,1.1873 1.07365,1.18466 1.44524,0.1295 0.19429,-0.5517 0.20059,-0.55757 0.52286,-0.48679 0.34499,0.0758 0.34487,0.2665 -6.8e-4,1.09167 -0.14602,0.3487 -0.28536,0.69816 -0.30964,0.77657 -0.0286,0.0925 0.1251,0.31872 0.43792,0.64428 0.55532,0.57793 0.5626,0.60401 0.24498,0.8774 l -0.23709,0.20409 -0.43108,-0.48271 c -0.48237,-0.54015 -0.58493,-0.57102 -0.90055,-0.27101 -0.61483,0.5844 -2.12375,0.91132 -3.06537,0.66413 z m 1.71848,-0.66899 c 0.45787,-0.0954 1.16974,-0.55668 1.16974,-0.75796 0,-0.29761 -2.23404,-2.32278 -2.45253,-2.22323 -2.31344,1.05407 -1.25654,3.5103 1.28279,2.98119 z m -0.38214,-4.17953 c 1.33179,-0.7984 1.44661,-2.0955 0.20202,-2.28214 -1.40756,-0.21108 -1.99425,1.11709 -0.9753,2.20788 0.28377,0.30377 0.3757,0.3126 0.77328,0.0743 z m 16.3229,4.8388 c -2.86283,-0.60934 -1.6264,-3.27781 1.51876,-3.27781 1.14413,0 1.14938,-0.003 1.04072,-0.59718 -0.23502,-1.28524 -1.78011,-1.60604 -3.20486,-0.66541 -0.22289,0.14715 -0.23439,0.14588 -0.41292,-0.0457 -0.8506,-0.91301 2.38269,-1.70263 3.5661,-0.8709 0.8239,0.57905 0.98187,1.25088 0.99392,4.22686 l 0.005,1.22857 h -0.43108 -0.43108 v -0.34486 c 0,-0.37476 -0.0973,-0.43821 -0.27743,-0.18099 -0.32659,0.46628 -1.46392,0.71971 -2.36711,0.52747 z m 1.41473,-0.62668 c 0.87492,-0.22955 1.61325,-1.54789 1.08722,-1.94132 -0.24174,-0.1808 -2.21615,-0.111 -2.59329,0.0917 -1.36734,0.73482 -0.11358,2.27458 1.50607,1.84964 z m 9.80827,0.6364 c -2.54317,-0.66762 -2.92811,-4.1492 -0.60648,-5.48516 1.71436,-0.98651 3.84809,0.20032 3.98975,2.21918 l 0.0469,0.66818 h -2.38325 c -2.66989,0 -2.52537,-0.0418 -2.20564,0.63835 0.62448,1.32853 2.53161,1.76991 3.60752,0.83492 0.287,-0.24941 0.41108,-0.21922 0.60397,0.14695 0.31669,0.60119 -1.84707,1.29409 -3.05275,0.97758 z m 2.67809,-3.31364 c 0.24333,-0.6341 -1.28409,-1.93882 -2.12738,-1.81721 -0.99133,0.14295 -2.08291,1.20858 -1.85266,1.8086 0.0659,0.17168 3.91427,0.18001 3.98004,0.009 z M 33.118091,228.5815 c -0.01581,-0.0473 -0.01824,-1.77374 -0.0054,-3.8366 l 0.02334,-3.75064 1.614759,5e-4 c 3.31651,10e-4 4.422901,0.69664 4.312226,2.71118 -0.09799,1.78364 -0.970006,2.40198 -3.451854,2.44766 l -1.616543,0.0297 v 1.24205 1.24205 h -0.423893 c -0.233142,0 -0.436826,-0.0387 -0.452632,-0.0859 z m 3.989969,-3.28954 c 1.557596,-0.46667 1.567586,-2.85635 0.01415,-3.38566 -0.616662,-0.21012 -3.125499,-0.19828 -3.132685,0.0148 -0.04151,1.23074 0.0328,3.4356 0.117806,3.49564 0.146356,0.10338 2.576494,0.002 3.000726,-0.12476 z m 3.632077,-0.65509 0.02241,-4.03058 0.366417,-0.0265 0.366416,-0.0265 v 4.05709 4.05709 H 41.106553 40.71773 Z m 9.243534,3.92207 c -0.0229,-0.0597 -0.03139,-1.34969 -0.01885,-2.86667 l 0.02279,-2.75815 h 0.38797 0.38797 l 0.02457,0.34486 c 0.04072,0.57159 0.08195,0.60943 0.343081,0.31495 0.805948,-0.90891 2.443168,-0.9811 3.364901,-0.14837 0.668518,0.60397 0.728294,0.8487 0.775298,3.17427 l 0.04139,2.04762 h -0.438108 -0.438107 l -0.02598,-2.01109 c -0.02949,-2.28213 -0.06715,-2.41539 -0.800443,-2.83225 -0.619265,-0.35203 -1.75493,-0.1972 -2.24052,0.30546 -0.50862,0.5265 -0.518,0.57139 -0.547341,2.61959 l -0.02748,1.91829 h -0.384749 c -0.229678,0 -0.401534,-0.0437 -0.426391,-0.10851 z m 14.698591,0.0438 c -0.02461,-0.31089 0.02336,-7.48308 0.05023,-7.50995 0.01941,-0.0194 0.182084,-0.0398 0.361503,-0.0454 l 0.326216,-0.0101 0.02345,1.61453 c 0.02842,1.95714 -0.265371,1.75447 2.498359,1.72344 l 2.176944,-0.0244 v -1.68304 -1.68304 l 0.409525,0.0263 0.409524,0.0263 0.02245,3.81504 0.02245,3.81504 h -0.430189 -0.43019 l -0.02334,-1.74586 -0.02334,-1.74587 h -2.284715 -2.284714 l 0.02536,1.74587 0.02536,1.74586 h -0.43488 c -0.239184,0 -0.437184,-0.0291 -0.439999,-0.0647 z m 21.300379,-3.98747 v -4.05213 h 0.387971 0.38797 v 2.2277 c 0,1.22524 0.02557,3.0487 0.05682,4.05214 l 0.05682,1.82442 H 86.42743 85.982641 Z m 7.34903,0.0215 0.02241,-4.03058 h 0.344862 0.344863 l 0.04311,1.58621 0.04311,1.5862 0.258647,-0.21652 c 1.470201,-1.23078 3.533632,-0.75062 4.000502,0.93091 0.05455,0.19649 0.09398,1.14015 0.09426,2.25607 l 4.81e-4,1.91829 h -0.387971 -0.38797 l -4.81e-4,-1.74586 c -7.09e-4,-2.57535 -0.244388,-3.11272 -1.496667,-3.30051 -1.519308,-0.22784 -2.064855,0.59207 -2.110038,3.17118 l -0.03285,1.87519 h -0.379333 -0.379332 z m 10.091999,0.20438 -0.0176,-3.8262 0.35246,-0.0564 c 0.19385,-0.031 0.36095,-0.0454 0.37132,-0.0319 0.0104,0.0134 0.14099,0.2475 0.29025,0.52016 0.62692,1.14524 0.83136,1.50055 1.27037,2.20788 0.25431,0.40975 0.74463,1.23953 1.08959,1.84395 0.77325,1.35484 0.48661,1.60185 2.72599,-2.34908 0.30909,-0.54531 0.71307,-1.25544 0.89776,-1.57807 l 0.33578,-0.58659 0.35991,0.0262 0.3599,0.0262 0.0101,3.81504 0.0101,3.81504 h -0.41959 -0.41959 v -2.88822 c 0,-3.30542 0.004,-3.29009 -0.62454,-2.13227 -0.22495,0.41405 -0.61658,1.10679 -0.8703,1.53941 -0.25371,0.43262 -0.485,0.83999 -0.51397,0.90526 -0.14514,0.32707 -1.06433,1.75019 -1.14719,1.77613 -0.10489,0.0328 -0.83796,-1.07021 -1.64587,-2.4765 -0.85431,-1.48706 -1.44862,-2.44273 -1.53753,-2.47237 -0.0534,-0.0178 -0.0725,1.01785 -0.0528,2.86034 l 0.0309,2.88822 h -0.41889 l -0.41888,-1e-5 z m 17.04522,0.9869 c 0,-3.13855 -0.0201,-3.03204 0.54641,-2.88984 0.19055,0.0478 0.21061,0.0887 0.16909,0.34457 -0.0808,0.49781 0.0272,0.6337 0.28372,0.35705 0.81008,-0.87364 2.54545,-0.97188 3.45253,-0.19546 0.62567,0.53556 0.69601,0.83201 0.75334,3.17536 l 0.0501,2.04762 h -0.42336 -0.42336 l -0.0273,-2.00451 c -0.0337,-2.47297 -0.21226,-2.86448 -1.38709,-3.04066 -1.6006,-0.24002 -2.21815,0.70716 -2.21815,3.40215 v 1.64302 h -0.38797 -0.38797 z m 21.12283,-0.0489 v -2.88822 h 0.38797 0.38797 v 0.38797 c 0,0.41617 0.13571,0.51067 0.3546,0.24692 0.28642,-0.34512 0.78107,-0.56309 1.31051,-0.5775 l 0.52469,-0.0143 0.0201,0.36641 0.0202,0.36642 h -0.34254 c -1.30142,0 -1.74709,0.81209 -1.78613,3.25464 l -0.0279,1.74586 h -0.42472 -0.42473 z m 31.42165,2.77971 c -0.0229,-0.0597 -0.0314,-1.34969 -0.0188,-2.86667 l 0.0228,-2.75815 h 0.38797 c 0.38527,0 0.38778,0.002 0.36114,0.27842 -0.0491,0.50954 0.0767,0.58494 0.46327,0.27764 0.45183,-0.35918 0.84107,-0.51296 1.2984,-0.51296 h 0.37744 v 0.34487 c 0,0.33739 -0.007,0.34486 -0.30519,0.34486 -1.29817,0 -1.70931,0.74484 -1.74888,3.16842 l -0.0299,1.83208 h -0.38327 c -0.22848,0 -0.40008,-0.0438 -0.42491,-0.10851 z m 17.80748,-10.19397 c -2.06487,-0.41575 -2.61702,-0.95101 -2.03484,-1.9726 0.20855,-0.36597 0.42665,-0.77996 0.48464,-0.91998 0.13279,-0.32058 0.16815,-0.31852 0.68935,0.04 2.04894,1.40942 4.32868,0.3245 5.0027,-2.38077 0.10286,-0.41286 -0.22592,-1.30313 -1.60165,-4.33687 -0.10751,-0.23709 -0.37053,-0.83845 -0.58447,-1.33634 -0.21395,-0.4979 -0.56252,-1.29324 -0.7746,-1.76742 -0.21208,-0.47419 -0.47239,-1.05614 -0.57846,-1.29324 -0.36543,-0.81682 -0.50268,-1.12825 -1.50088,-3.40551 -0.5508,-1.2566 -1.07789,-2.4496 -1.17131,-2.65113 l -0.16985,-0.36642 h 1.44796 1.44795 l 0.15932,0.36642 c 0.0876,0.20153 0.24728,0.56107 0.3548,0.79898 0.10752,0.23792 0.2791,0.64528 0.3813,0.90527 0.2107,0.53603 0.34661,0.84837 0.70039,1.60962 0.13635,0.29337 0.2479,0.5541 0.2479,0.5794 0,0.0253 0.0926,0.25082 0.20589,0.50117 0.30644,0.6775 0.51857,1.15858 0.82799,1.87774 0.15301,0.35564 0.33008,0.76301 0.39349,0.90527 0.27812,0.624 1.39152,3.21501 1.62085,3.77193 0.20366,0.49456 0.3719,0.23295 1.23375,-1.9183 0.25646,-0.64015 0.5186,-1.2803 0.58253,-1.42255 0.0639,-0.14226 0.2973,-0.68542 0.5186,-1.20702 0.22131,-0.52161 0.43767,-1.02597 0.4808,-1.12081 0.3177,-0.69847 2.07569,-4.90615 2.1793,-5.21604 l 0.1297,-0.38797 1.38824,-0.0237 c 0.95227,-0.0163 1.38825,0.006 1.38825,0.0695 0,0.0513 -0.13173,0.41111 -0.29274,0.79963 -0.273,0.65878 -0.4251,1.00333 -0.97786,2.21517 -0.11896,0.2608 -0.3418,0.76517 -0.4952,1.12081 -0.1534,0.35564 -0.35744,0.8212 -0.45344,1.03458 -0.096,0.21339 -0.30004,0.67895 -0.45345,1.03459 -0.1534,0.35564 -0.34993,0.80493 -0.43671,0.99843 -0.0868,0.19349 -0.23944,0.55894 -0.33923,0.8121 -0.0998,0.25316 -0.257,0.62618 -0.34936,0.82893 -0.0924,0.20274 -0.16793,0.38745 -0.16793,0.41045 0,0.023 -0.11164,0.28701 -0.24808,0.58669 -0.13644,0.29967 -0.5093,1.14621 -0.82858,1.8812 -0.31927,0.73499 -0.77527,1.78251 -1.01333,2.32782 -0.23806,0.54532 -0.56359,1.31384 -0.7234,1.70783 -1.50693,3.71511 -3.62336,5.15659 -6.67033,4.54309 z M 41.883347,213.02171 c -2.98845,-0.55149 -4.719988,-2.85757 -4.153045,-5.53106 0.564789,-2.66333 2.662669,-3.65167 7.753566,-3.65279 l 2.307287,-5.1e-4 -0.05613,-0.36641 c -0.405739,-2.64849 -3.916277,-3.35342 -7.260398,-1.45792 -0.34803,0.19727 -0.658406,0.35614 -0.689725,0.35306 -0.191322,-0.0188 -1.55215,-3.05997 -1.415547,-3.16343 3.948473,-2.9904 11.643601,-2.08811 13.202105,1.54801 0.64561,1.50626 0.700874,2.09948 0.700874,7.52329 v 4.70533 l -2.090729,-0.0231 -2.090729,-0.0231 0.03163,-0.8406 c 0.03464,-0.92048 -0.0047,-0.98239 -0.349582,-0.55017 -1.011003,1.26708 -3.564421,1.90846 -5.889574,1.47938 z m 3.913732,-3.11231 c 1.325257,-0.42394 2.028419,-1.39727 1.97423,-2.73276 l -0.0253,-0.62349 -2.026067,0.004 c -2.540228,0.005 -3.016705,0.14122 -3.449421,0.98941 -0.85154,1.66916 1.264174,3.08694 3.526558,2.36322 z m 33.296012,3.14166 c -1.952047,-0.32397 -3.398918,-1.57008 -3.94914,-3.40117 -0.136891,-0.45557 -0.153356,-0.91699 -0.153566,-4.30376 l -2.36e-4,-3.79349 -1.163911,-0.0431 -1.163911,-0.0431 v -1.72431 -1.72431 l 1.185464,-0.024 1.185465,-0.024 v -1.89431 -1.89431 h 2.196818 2.196817 l 0.02323,1.87519 0.02323,1.87519 1.87697,0.0232 1.87697,0.0232 -0.02333,1.74418 -0.02333,1.74418 h -1.853636 -1.853636 l -0.0226,3.2631 c -0.02405,3.47212 5.08e-4,3.74273 0.380575,4.19442 0.637501,0.75762 1.710535,0.8529 2.880933,0.25581 l 0.312768,-0.15956 0.39411,1.00808 c 0.459975,1.17656 0.752965,2.01385 0.752965,2.15178 0,0.58707 -3.339346,1.15974 -5.079022,0.87101 z m 10.381283,-0.0299 c -1.775027,-0.24974 -4.336551,-1.14044 -4.499273,-1.56449 -0.03237,-0.0843 1.196827,-3.08728 1.314588,-3.21155 0.01685,-0.0178 0.37173,0.13303 0.788615,0.33515 2.744723,1.33072 5.775133,1.60108 6.815168,0.60803 1.034772,-0.98803 0.231379,-1.73931 -2.306815,-2.15718 -4.813625,-0.79248 -6.379956,-1.88183 -6.379956,-4.43714 0,-3.99419 4.209179,-6.055 9.943087,-4.86811 1.147443,0.23751 2.7623,0.84453 2.849204,1.071 0.02695,0.0702 -1.330861,3.00529 -1.441485,3.11592 -0.01498,0.015 -0.256909,-0.0833 -0.537633,-0.21839 -3.20833,-1.54389 -8.093944,-0.69447 -6.222191,1.0818 0.512383,0.48625 0.608815,0.51729 2.743331,0.88307 4.218666,0.72294 5.669088,1.66156 6.030518,3.90256 0.620641,3.84821 -3.399846,6.26096 -9.097158,5.45933 z m 39.102186,0.0341 c -9.73251,-0.84762 -9.32918,-15.23043 0.42768,-15.25137 3.41393,-0.007 6.16692,1.99304 7.05767,5.12821 0.34217,1.20431 0.49914,3.30351 0.24911,3.33126 -0.0593,0.007 -2.81387,0.002 -6.12131,-0.01 -5.20781,-0.019 -6.01354,-0.005 -6.01354,0.10313 0,3.24726 4.83545,5.44343 8.25682,3.75009 0.54282,-0.26866 0.6525,-0.34876 1.24784,-0.91134 0.36802,-0.34776 0.28938,-0.3849 0.9679,0.45709 0.18823,0.23357 0.47226,0.5547 0.63117,0.71362 0.35813,0.35813 0.37509,0.32122 -0.4561,0.99282 -1.74071,1.40649 -3.64367,1.92326 -6.24724,1.69651 z m 5.23085,-9.05553 c -0.19522,-1.45553 -1.55897,-3.03303 -3.18463,-3.6838 -1.96027,-0.78471 -4.8051,0.26759 -5.79069,2.14198 -0.2539,0.48288 -0.65592,1.5754 -0.65592,1.78252 0,0.0935 0.87954,0.11423 4.83942,0.11423 h 4.83943 z m 8.60336,9.02128 c -5.53196,-0.77954 -5.96724,-7.45273 -0.5604,-8.59144 0.41018,-0.0864 1.33461,-0.11802 3.44862,-0.11802 3.44676,0 3.52905,-0.0645 2.75049,-2.15539 -0.89135,-2.39382 -4.89204,-2.70983 -7.98206,-0.63049 -0.48459,0.32609 -0.44322,0.35109 -0.97747,-0.59068 -0.67164,-1.18393 -0.66008,-1.10595 -0.21212,-1.43089 4.16614,-3.02207 10.81994,-1.9261 11.9136,1.96233 0.0533,0.18968 0.14536,0.50005 0.20447,0.68973 0.079,0.25363 0.11702,1.73097 0.14357,5.58474 l 0.0361,5.23989 -1.32173,-0.0238 -1.32174,-0.0238 v -0.8333 c 0,-1.0361 -0.005,-1.04012 -0.57727,-0.48481 -0.7045,0.68338 -1.79991,1.20606 -2.95757,1.4112 -0.81819,0.14498 -1.53093,0.14355 -2.58647,-0.005 z m 3.23309,-2.20209 c 1.80841,-0.59042 2.7106,-1.75056 2.71385,-3.48982 l 0.002,-1.03459 -2.50025,-0.0258 c -3.72024,-0.0384 -4.52433,0.22346 -4.9256,1.60376 -0.438,1.50669 0.55421,2.80848 2.33913,3.06896 0.44147,0.0644 2.05344,-0.0189 2.37093,-0.12254 z m 20.77796,2.20637 c -3.20197,-0.6104 -3.74928,-1.89977 -3.64937,-8.59738 0.0307,-2.05988 0.0295,-3.85017 -0.003,-3.97842 l -0.0585,-0.23318 h -1.20538 -1.20538 v -1.12081 -1.1208 h 1.25013 1.25013 v -1.72431 -1.72432 h 1.42724 1.42724 l -0.0151,1.70276 -0.0151,1.70276 2.10117,0.0431 2.10116,0.0431 0.0241,1.09925 0.0241,1.09925 h -2.06119 c -1.55136,0 -2.0798,0.0267 -2.13642,0.10777 -0.16039,0.2298 -0.004,9.04403 0.16632,9.34837 0.64598,1.15716 3.28588,1.53338 3.89087,0.55449 0.12356,-0.19993 0.28381,-0.0805 0.47858,0.3568 0.11089,0.24894 0.31179,0.69608 0.44645,0.99363 0.13465,0.29756 0.24483,0.55659 0.24483,0.57563 0,0.0729 -0.92316,0.55813 -1.29324,0.67978 -1.00858,0.33152 -2.11158,0.39808 -3.18998,0.19251 z m -155.501529,-0.1784 c -0.01801,-0.0474 -0.02276,-4.48968 -0.01055,-9.87169 l 0.0222,-9.78548 4.526321,-0.0252 c 5.979872,-0.0333 7.115222,0.10645 9.025029,1.11107 4.407708,2.31859 4.697575,8.94907 0.509913,11.66387 -1.715435,1.11209 -2.844005,1.35093 -6.603611,1.39751 l -2.802008,0.0347 -0.02279,2.78072 -0.02279,2.78071 h -2.294477 c -1.450343,0 -2.306525,-0.0317 -2.327224,-0.0862 z m 10.509971,-9.63055 c 2.158635,-1.01155 2.539924,-4.10065 0.678755,-5.49911 -0.849716,-0.63846 -1.639816,-0.77559 -4.473816,-0.77648 l -2.090729,-6.5e-4 v 3.27968 3.27967 l 2.694238,-0.025 2.694238,-0.025 z m 9.069284,9.6521 c -0.02257,-0.0593 -0.03105,-4.76341 -0.01885,-10.45365 l 0.02219,-10.34587 h 2.241607 2.241606 l 0.0219,10.45364 0.0219,10.45365 h -2.244657 c -1.716365,0 -2.254315,-0.0254 -2.285691,-0.10777 z m 25.261651,0.001 c -0.0229,-0.06 -0.03163,-3.50391 -0.01939,-7.65304 l 0.02225,-7.54386 h 2.069175 2.069175 v 0.79027 c 0,0.99277 0.0013,0.99368 0.66002,0.46119 3.24323,-2.62172 8.344982,-1.66594 9.803065,1.83653 0.570099,1.36944 0.563836,1.29232 0.568389,6.99923 l 0.0041,5.17294 h -2.198499 -2.198498 l -0.04671,-4.56943 c -0.05252,-5.13794 -0.06385,-5.23232 -0.733249,-6.109 -1.086565,-1.42303 -3.88536,-1.18924 -4.908388,0.41001 -0.688189,1.07581 -0.683175,1.033 -0.687635,5.87142 -0.0025,2.69498 -0.03546,4.33333 -0.08798,4.37094 -0.164174,0.11755 -4.27033,0.0822 -4.315855,-0.0372 z m 47.017013,0.0202 -1.35282,-0.0431 0.0165,-9.78548 0.0165,-9.78547 h 1.41974 1.41974 l 0.003,4.09524 0.003,4.09524 5.38848,0.0238 c 2.96366,0.0131 5.47495,0.003 5.58064,-0.0227 l 0.19216,-0.0465 -0.0197,-4.0725 -0.0197,-4.0725 1.401,-0.0237 1.40101,-0.0237 v 9.85411 9.85411 l -1.40101,-0.024 -1.401,-0.024 v -4.33169 c 0,-2.38243 -0.01,-4.38018 -0.0216,-4.43946 -0.017,-0.0849 -1.20428,-0.10777 -5.59037,-0.10777 h -5.56882 l 0.0295,4.43918 c 0.0193,2.91184 -2e-4,4.44692 -0.0567,4.46166 -0.0474,0.0124 -0.69499,0.003 -1.43904,-0.0206 z m 70.56242,0.0258 c -0.0854,-0.0318 -0.10777,-2.20401 -0.10777,-10.46505 v -10.42491 h 1.39013 1.39013 l -0.0359,3.92281 c -0.0382,4.16376 -0.041,4.13463 0.36596,3.69918 2.86007,-3.06009 8.95903,-2.16456 10.33055,1.51687 0.0618,0.16596 0.14451,0.37935 0.18374,0.47418 0.32547,0.78683 0.42794,2.50498 0.42827,7.18105 l 3e-4,4.16351 -1.31479,-0.0168 c -0.72314,-0.009 -1.36329,-0.0344 -1.42256,-0.0559 -0.0844,-0.0306 -0.10799,-1.04321 -0.10879,-4.664 -0.001,-4.99461 -0.006,-5.05729 -0.47441,-6.01458 -1.32732,-2.71294 -5.98476,-2.55837 -7.36456,0.24441 -0.55392,1.12516 -0.54778,1.06431 -0.60238,5.96756 l -0.0499,4.4774 -1.25013,0.0172 c -0.68756,0.009 -1.29862,-8.5e-4 -1.35789,-0.0229 z m -18.04062,-10.45573 v -10.43423 h 1.37945 1.37945 v 10.34588 c 0,5.69023 0.01,10.37497 0.0215,10.41053 0.0119,0.0356 -0.6089,0.0753 -1.37945,0.0884 l -1.401,0.0237 z M 66.265057,184.28898 c 0.04932,-0.16132 0.977103,-2.44426 1.288057,-3.16945 1.588953,-3.70564 5.065876,-9.332 7.618861,-12.32883 2.795848,-3.28192 3.116309,-3.6228 5.600269,-5.95703 2.130791,-2.00236 6.119595,-5.24284 8.112585,-6.59062 0.102517,-0.0693 0.645676,-0.44575 1.207019,-0.83649 1.233664,-0.85873 4.657208,-3.11753 5.529748,-3.64844 0.645393,-0.3927 0.821655,-0.50156 2.086371,-1.28863 0.403058,-0.25084 1.469977,-0.88179 2.370933,-1.40211 0.90095,-0.52032 1.73509,-1.01344 1.85363,-1.09582 0.11855,-0.0824 0.25567,-0.16501 0.30472,-0.18363 0.10297,-0.0391 2.84952,-1.66839 3.61809,-2.14633 0.28452,-0.17693 0.82767,-0.50377 1.20702,-0.72632 1.05626,-0.61968 0.97362,-0.49282 1.07598,-1.65163 0.50709,-5.74041 1.66224,-9.61525 4.0068,-13.44032 0.4829,-0.78784 1.49179,-2.21295 1.67996,-2.37303 0.0279,-0.0237 0.22472,-0.25611 0.43745,-0.51644 1.27369,-1.55869 1.92218,-2.19631 1.44002,-1.41588 -0.38953,0.63051 -0.52415,0.87146 -0.88691,1.58746 -0.2042,0.40306 -0.45428,0.94622 -0.55573,1.20702 -0.10144,0.2608 -0.2352,0.59058 -0.29723,0.73283 -0.062,0.14226 -0.19857,0.49143 -0.30343,0.77594 -0.10486,0.28451 -0.22426,0.59489 -0.26533,0.68973 -0.74607,1.72273 -1.35262,6.01072 -1.36823,9.67261 -0.007,1.67403 -0.0415,1.63779 0.95059,1.00216 2.07078,-1.32672 3.4734,-2.26099 4.25951,-2.8372 0.47418,-0.34758 1.5023,-1.08372 2.28471,-1.63587 1.84968,-1.30533 5.3894,-4.04914 6.29653,-4.88075 0.1923,-0.17628 0.79126,-0.69057 1.58864,-1.36406 2.48282,-2.09704 7.21896,-6.93261 8.78335,-8.96774 0.52439,-0.68219 1.30719,-1.78759 1.34166,-1.75313 0.77254,0.77077 -3.6018,6.71662 -6.81996,10.72083 -0.13339,0.16597 -0.44047,0.55394 -0.6824,0.86216 -0.24193,0.30822 -0.60132,0.73498 -0.79863,0.94837 -0.19732,0.21338 -0.66776,0.75654 -1.04544,1.20702 -0.67608,0.8064 -4.67156,4.86672 -5.34443,5.43117 -0.18967,0.15911 -0.52018,0.44738 -0.73445,0.64059 -1.22169,1.10161 -2.02792,1.78019 -2.92367,2.46079 -0.154,0.11701 -0.36766,0.2916 -0.47481,0.38797 -0.10715,0.0964 -0.29769,0.26226 -0.42342,0.36864 -0.28568,0.2417 -0.28872,0.34862 -0.0119,0.4181 0.35028,0.0879 6.25045,-0.0171 6.72363,-0.11964 0.2371,-0.0514 0.70266,-0.13788 1.03459,-0.1922 0.33193,-0.0543 0.89449,-0.15867 1.25013,-0.2319 0.35564,-0.0732 0.8018,-0.16351 0.99148,-0.20064 0.3156,-0.0618 1.3503,-0.33042 1.98296,-0.51484 0.14225,-0.0415 0.39443,-0.11168 0.5604,-0.15602 1.84236,-0.49219 3.74229,-1.3677 4.68922,-1.83735 0.60405,-0.2996 0.70678,-0.27213 0.25229,0.0675 -0.37093,0.27714 -1.58377,1.32406 -2.82673,2.14671 -1.42758,0.94481 -3.90793,2.15951 -5.47719,2.68234 -0.35564,0.11849 -0.72421,0.24783 -0.81905,0.28741 -0.55854,0.23313 -2.41315,0.75216 -3.4331,0.96079 -0.24563,0.0502 -0.62119,0.12739 -0.83457,0.17145 -1.69212,0.34939 -3.68506,0.50106 -6.62054,0.50383 -2.85215,0.003 -2.93497,0.0138 -3.29426,0.44189 -0.0397,0.0473 -3.74818,2.51203 -4.07382,2.70754 -0.25475,0.15294 -1.60341,1.01921 -2.46225,1.58155 -0.45945,0.30084 -1.33973,0.85929 -1.95617,1.241 -0.61644,0.38171 -1.41178,0.87727 -1.76742,1.10125 -0.35564,0.22397 -0.94956,0.59665 -1.31982,0.82818 -0.37026,0.23152 -0.902056,0.56644 -1.181762,0.74426 -0.279705,0.17782 -0.528868,0.32331 -0.553694,0.32331 -0.02483,0 -0.261732,0.13855 -0.526458,0.3079 -0.517233,0.33087 -0.53349,0.49242 -0.0581,0.57738 0.128876,0.023 0.641688,0.12709 1.139584,0.23124 1.3973,0.2923 2.36532,0.44243 4.69875,0.72874 3.31474,0.40671 6.41892,0.52097 8.55352,0.31485 0.46419,-0.0448 1.32895,-0.12502 1.92168,-0.17821 0.59273,-0.0532 1.29108,-0.13195 1.55188,-0.17501 0.85074,-0.14048 3.1385,-0.5346 3.49173,-0.60154 0.63983,-0.12125 3.04104,-0.80525 4.27342,-1.21731 0.26396,-0.0883 0.55687,-0.16047 0.65092,-0.16047 0.094,0 0.21756,-0.0466 0.27446,-0.10346 0.0569,-0.0569 0.10346,-0.0653 0.10346,-0.0186 0,0.1511 -0.9538,0.70174 -2.802,1.61761 -3.12658,1.54937 -4.65384,2.13216 -7.37144,2.81292 -2.1263,0.53263 -3.04789,0.69442 -6.16442,1.08219 -3.17864,0.39549 -9.086055,0.18425 -13.406526,-0.47941 -1.551069,-0.23826 -1.786048,-0.27911 -2.017379,-0.3507 -0.444231,-0.13747 -0.629172,-0.0851 -1.316254,0.37248 -0.694358,0.46247 -2.523782,1.82502 -2.830785,2.10837 -0.09484,0.0875 -0.347018,0.29334 -0.560401,0.45736 -0.35667,0.27416 -1.364859,1.10661 -1.465666,1.21019 -0.02371,0.0244 -0.256492,0.2159 -0.517294,0.42563 -2.022648,1.6266 -6.06307,6.04834 -8.157692,8.92758 -0.739718,1.01681 -2.360615,3.50894 -2.360615,3.62945 0,0.0208 -0.146742,0.27961 -0.326093,0.57512 -0.741331,1.22147 -1.532582,2.8923 -2.47962,5.23605 l -0.539974,1.33634 -3.337986,0.0226 c -3.153545,0.0213 -3.335419,0.0142 -3.291545,-0.12932 z m 49.476483,-4.777 c -0.66905,-0.33117 -0.61953,-0.19874 -2.38068,-6.36739 -0.26399,-0.92466 -0.56156,-1.97218 -0.66126,-2.32782 -0.53826,-1.91996 -0.65864,-2.09486 -0.84561,-1.22858 -0.11862,0.54959 -0.49475,1.83021 -0.86728,2.95289 -0.13374,0.40306 -0.32852,1.04321 -0.43283,1.42256 -0.10431,0.37935 -0.26936,0.92895 -0.36676,1.22133 l -0.1771,0.53162 -0.52545,0.0892 c -1.97934,0.33599 -8.18826,0.45057 -10.742015,0.19824 -4.669474,-0.46137 -7.761997,-1.09702 -11.811542,-2.42778 -1.682254,-0.55282 -2.931331,-1.04041 -2.931331,-1.14429 0,-0.12389 1.469776,-1.81209 2.485399,-2.85476 l 0.913498,-0.93782 1.037898,0.3501 c 1.938923,0.65404 3.08411,0.97376 4.831385,1.34883 0.569023,0.12215 1.170377,0.25802 1.336342,0.30194 0.406612,0.1076 2.494103,0.40085 3.664165,0.51474 2.828521,0.27533 4.688391,0.32294 7.110901,0.18202 1.53234,-0.0891 1.51142,-0.0967 1.59516,0.57356 0.0889,0.7119 0.093,0.71673 0.59466,0.71673 h 0.44517 l 0.20102,-0.66817 c 0.11056,-0.36749 0.23602,-0.78456 0.27879,-0.92682 0.2405,-0.79986 0.64033,-2.07624 0.85072,-2.71579 0.24051,-0.73104 0.49059,-1.53416 1.08729,-3.49173 0.60151,-1.97332 1.11148,-2.48924 2.17693,-2.20234 0.36394,0.098 0.87642,0.60579 0.87642,0.8684 0,0.0746 0.0321,0.1724 0.0712,0.21745 0.0649,0.0746 0.12005,0.24137 0.38354,1.1596 0.0476,0.16596 0.11547,0.39874 0.15078,0.51729 0.0666,0.22367 0.084,0.28605 0.51526,1.85364 0.14352,0.5216 0.30372,1.10356 0.35601,1.29323 0.0523,0.18968 0.12486,0.44186 0.16128,0.5604 0.0364,0.11855 0.11538,0.39013 0.17546,0.60351 0.0601,0.21339 0.20284,0.67744 0.31725,1.03123 0.11441,0.35379 0.31722,1.07153 0.45069,1.59499 0.38506,1.51012 0.3685,1.53607 1.67622,-2.62622 0.6794,-2.16242 0.64645,-1.99725 3.41773,-2.16307 1.01981,-0.061 1.55517,-0.10185 1.44582,-0.15879 -0.47328,-0.24646 -0.37574,-0.5522 -0.35067,-0.67866 0.0542,-0.27357 0.84315,-0.7878 1.20055,-1.04546 0.20334,-0.14659 0.51531,-0.3319 0.64925,-0.43382 0.2503,-0.19045 0.59519,-0.36771 1.54312,-1.0314 1.81067,-1.26776 3.31885,-2.55899 5.04272,-4.31736 1.09438,-1.11628 1.65275,-1.73625 2.84506,-3.15897 1.45099,-1.73138 3.9413,-5.58861 5.05748,-7.83352 2.79887,-5.8371 4.53466,-10.44271 5.16497,-17.13088 0.0121,-0.28246 0.0128,-0.282 0.0812,0.0602 0.0588,0.29416 0.0645,0.26881 0.0388,-0.17243 -0.0166,-0.28451 0.006,-0.82767 0.0498,-1.20702 0.044,-0.37935 0.1014,-1.09709 0.12762,-1.59499 0.0262,-0.49789 0.0768,-1.19143 0.11239,-1.5412 0.40753,-1.47083 -1.02558,-15.60918 -2.02574,-15.57737 0.0639,0.16694 -2.16344,0.71211 -5.69373,2.37979 -0.32509,0.15358 -0.67836,0.31246 -0.78505,0.35307 -0.32371,0.12323 -0.56722,0.22231 -0.88371,0.35956 -0.16597,0.072 -0.57334,0.23468 -0.90527,0.36157 -5.92065,2.26334 -10.58742,3.32815 -10.69073,3.40113 -0.20876,0.14754 -8.49527,2.08134 -11.68222,2.92392 -0.35564,0.094 -1.07339,0.29243 -1.59499,0.4409 -0.52161,0.14846 -1.06476,0.302 -1.20702,0.34119 -0.14226,0.0392 -0.31684,0.0956 -0.38797,0.1253 -0.11354,0.0475 -0.12638,-0.25119 -0.10522,-2.44721 0.0132,-1.37569 0.0405,-2.50126 0.0605,-2.50126 0.02,0 0.26133,-0.0619 0.5363,-0.13765 0.27497,-0.0757 0.63574,-0.16923 0.8017,-0.20782 2.81921,-0.65536 17.18468,-4.04621 23.19201,-6.61903 9.18228,-3.93278 8.81183,-4.72964 11.55285,-6.05988 0.11003,-0.0534 0.19691,0.11531 0.1364,0.0174 -0.0704,-0.11388 0.26848,-0.38272 0.38874,-0.3084 0.0635,0.0393 0.0827,0.0289 0.0487,-0.0262 -0.0433,-0.07 0.44979,-0.45284 0.58321,-0.45284 0.0145,0 0.0758,0.23278 0.13618,0.51729 1.81289,5.57644 2.83198,11.62534 3.19741,17.54488 0.27046,4.9343 -0.19657,10.90604 -1.2256,15.67142 -0.14571,0.67476 -0.29982,1.40143 -0.34247,1.61482 -0.0766,0.38306 -0.20181,0.84319 -0.50454,1.85363 -0.0852,0.28452 -0.2059,0.72098 -0.26814,0.96993 -0.0622,0.24895 -0.14461,0.45263 -0.18307,0.45263 -0.0385,0 -0.0699,0.0864 -0.0699,0.192 0,0.22291 -0.84195,2.74258 -0.95712,2.86435 -0.0426,0.045 -0.0775,0.15424 -0.0775,0.24266 0,0.15049 -0.0989,0.4232 -0.53895,1.48596 -0.3981,0.96148 -1.05252,2.39225 -1.39993,3.06065 -0.1109,0.21339 -0.37269,0.71775 -0.58176,1.12081 -0.20906,0.40306 -0.42461,0.81042 -0.47899,0.90526 -0.0544,0.0948 -0.44703,0.78204 -0.87254,1.52711 -0.79034,1.3839 -1.53664,2.55184 -2.21946,3.4734 -1.39662,1.88494 -2.0115,2.67829 -2.73143,3.52425 -1.09422,1.28576 -3.75768,3.94021 -4.78673,4.77052 -0.45723,0.36892 -0.88318,0.72006 -0.94656,0.78029 -0.0634,0.0602 -0.25736,0.2154 -0.43108,0.34481 -0.17371,0.12941 -0.33524,0.25766 -0.35895,0.285 -0.26201,0.30209 -4.72639,3.3568 -4.90587,3.3568 -0.0442,0 -0.0932,0.0327 -0.10901,0.0726 -0.15116,0.38166 -0.93959,0.53683 -2.67891,0.52723 -0.94559,-0.005 -1.73797,0.009 -1.76084,0.0321 -0.0475,0.0475 -0.58067,1.5448 -0.75737,2.12701 -0.0648,0.21338 -0.23735,0.73714 -0.38354,1.16391 -0.14618,0.42677 -0.5232,1.57128 -0.83783,2.54336 -0.63464,1.9608 -0.76536,2.26238 -1.13116,2.60972 -0.45112,0.42837 -0.9897,0.50528 -1.56033,0.22283 z M 74.911627,163.63931 c -0.839751,-3.01642 -1.105912,-9.88297 -0.519813,-13.4104 l 0.0472,-0.28408 2.359249,0.0254 c 2.760368,0.0298 2.479598,-0.0878 2.333229,0.97687 -0.249858,1.81746 -0.304748,2.5875 -0.304748,4.27528 0,1.61157 0.04498,2.29105 0.258988,3.91214 l 0.07967,0.60351 -0.535746,0.46486 c -0.294661,0.25568 -1.217298,1.15771 -2.050306,2.00452 -1.5286,1.55392 -1.613465,1.62678 -1.667725,1.43187 z"
         id="path62" /></g></g></svg>
